<svg width="162" height="44" viewBox="0 0 162 44" fill="none" xmlns="http://www.w3.org/2000/svg">
<path d="M28.1199 43.6413C39.7828 43.6413 49.2374 34.0121 49.2374 22.1339C49.2374 10.2557 39.7828 0.626465 28.1199 0.626465C16.4571 0.626465 7.00244 10.2557 7.00244 22.1339C7.00244 34.0121 16.4571 43.6413 28.1199 43.6413Z" fill="#FFF"/>
<path d="M21.1175 43.6413C32.7803 43.6413 42.2349 34.0121 42.2349 22.1339C42.2349 10.2557 32.7803 0.626465 21.1175 0.626465C9.45461 0.626465 0 10.2557 0 22.1339C0 34.0121 9.45461 43.6413 21.1175 43.6413Z" fill="#FFF"/>
<path d="M24.9293 0C20.5908 0 16.3498 1.2785 12.7425 3.67382C9.1352 6.06914 6.32366 9.47369 4.66341 13.457C3.00316 17.4402 2.56876 21.8233 3.41515 26.0519C4.26154 30.2805 6.3507 34.1648 9.41845 37.2134C12.4862 40.2621 16.3947 42.3383 20.6498 43.1794C24.9049 44.0205 29.3154 43.5888 33.3236 41.9389C37.3319 40.289 40.7577 37.4949 43.168 33.9101C45.5784 30.3252 46.8649 26.1106 46.8649 21.7991C46.8649 16.0176 44.5538 10.4729 40.4401 6.38482C36.3263 2.29669 30.7469 0 24.9293 0V0Z" fill="#000"/>
<path d="M18.668 15.1654C18.6687 15.0054 18.6375 14.847 18.5764 14.699C18.5152 14.5511 18.4253 14.4166 18.3117 14.3033C18.1981 14.19 18.0632 14.1001 17.9145 14.0387C17.7659 13.9774 17.6066 13.9458 17.4456 13.9458C17.2846 13.9459 17.1252 13.9777 16.9765 14.0392C16.8278 14.1008 16.6929 14.1909 16.5794 14.3045L10.4626 20.388C10.3481 20.5001 10.2572 20.6338 10.1951 20.7811C10.133 20.9285 10.1011 21.0867 10.1011 21.2465C10.1011 21.4062 10.133 21.5644 10.1951 21.7118C10.2572 21.8591 10.3481 21.9928 10.4626 22.1049L16.5794 28.1884C16.8133 28.395 17.1179 28.505 17.4307 28.4958C17.7435 28.4867 18.041 28.3591 18.2624 28.1392C18.4837 27.9192 18.6121 27.6236 18.6213 27.3127C18.6305 27.0018 18.5198 26.6992 18.3119 26.4667L13.0566 21.2441L18.3119 16.0262C18.5387 15.7962 18.6664 15.4874 18.668 15.1654Z" fill="white"/>
<path d="M32.9997 14.305C32.7658 14.0984 32.4612 13.9884 32.1484 13.9976C31.8356 14.0068 31.5381 14.1343 31.3168 14.3543C31.0954 14.5742 30.9671 14.8699 30.9578 15.1808C30.9486 15.4916 31.0593 15.7943 31.2672 16.0268L36.5225 21.2446L31.2816 26.4672C31.1288 26.6181 31.0187 26.8063 30.9623 27.013C30.9058 27.2196 30.9052 27.4374 30.9603 27.6443C31.0154 27.8513 31.1244 28.0402 31.2762 28.1921C31.4281 28.3439 31.6175 28.4534 31.8255 28.5094C32.0345 28.5638 32.2542 28.5629 32.4628 28.5067C32.6714 28.4504 32.8615 28.3409 33.0142 28.189L39.1165 22.1055C39.231 21.9933 39.3219 21.8597 39.384 21.7123C39.4461 21.5649 39.478 21.4068 39.478 21.247C39.478 21.0872 39.4461 20.9291 39.384 20.7817C39.3219 20.6343 39.231 20.5007 39.1165 20.3885L32.9997 14.305Z" fill="white"/>
<path d="M27.5712 11.5595C27.2591 11.4737 26.9257 11.5134 26.6429 11.67C26.3601 11.8266 26.1507 12.0876 26.06 12.3964L21.1753 29.4273C21.1305 29.5805 21.1166 29.7411 21.1345 29.8997C21.1524 30.0582 21.2017 30.2117 21.2795 30.3513C21.3574 30.4909 21.4622 30.6138 21.588 30.713C21.7139 30.8121 21.8582 30.8855 22.0127 30.929C22.122 30.9613 22.2355 30.9774 22.3496 30.9769C22.6163 30.9774 22.8759 30.8913 23.0888 30.7315C23.3017 30.5718 23.4562 30.3472 23.5286 30.0921L28.3941 13.066C28.4827 12.7578 28.4461 12.4274 28.2922 12.1457C28.1383 11.864 27.8795 11.6536 27.5712 11.5595Z" fill="white"/>
<path d="M69.7878 27.2609L58.8893 21.3404L58.259 21.7041V27.2609H56.1851V12.2475H58.259V19.2793L70.0522 12.2475H74.0781L60.943 20.1078L72.8988 26.6143L74.0781 27.2609H72.7361H69.7878Z" fill="white"/>
<path d="M86.6263 21.4818H76.7648C76.8461 22.4517 77.2257 23.2937 77.9034 24.0077C78.649 24.8159 79.5639 25.22 80.6484 25.22C81.3804 25.22 82.0514 25.018 82.6613 24.6138C83.2713 24.2232 83.7458 23.6776 84.0847 22.9771L84.2067 22.7144H86.4433L86.1993 23.3408C85.7655 24.5128 85.0471 25.4625 84.044 26.19C83.0409 26.9174 81.909 27.2811 80.6484 27.2811C78.9675 27.2811 77.551 26.6682 76.3988 25.4423C75.233 24.2434 74.6501 22.7818 74.6501 21.0575C74.6501 19.3332 75.233 17.8581 76.3988 16.6323C77.5645 15.4064 78.9811 14.7935 80.6484 14.7935C82.3021 14.7935 83.7119 15.4064 84.8776 16.6323C86.0434 17.8581 86.6263 19.3197 86.6263 21.0171V21.4818ZM78.2491 17.7436C77.7069 18.2016 77.3002 18.7607 77.0291 19.4208H84.2473C83.9762 18.7607 83.5696 18.2016 83.0273 17.7436C82.3225 17.1644 81.5227 16.8747 80.628 16.8747C79.7469 16.8747 78.954 17.1644 78.2491 17.7436Z" fill="white"/>
<path d="M99.2947 21.4818H89.4332C89.5145 22.4517 89.8941 23.2937 90.5718 24.0077C91.3174 24.8159 92.2324 25.22 93.3168 25.22C94.0488 25.22 94.7198 25.018 95.3298 24.6138C95.9398 24.2232 96.4142 23.6776 96.7531 22.9771L96.8751 22.7144H99.1117L98.8677 23.3408C98.4339 24.5128 97.7155 25.4625 96.7124 26.19C95.7093 26.9174 94.5774 27.2811 93.3168 27.2811C91.6359 27.2811 90.2194 26.6682 89.0672 25.4423C87.9014 24.2434 87.3186 22.7818 87.3186 21.0575C87.3186 19.3332 87.9014 17.8581 89.0672 16.6323C90.233 15.4064 91.6495 14.7935 93.3168 14.7935C94.9706 14.7935 96.3803 15.4064 97.5461 16.6323C98.7118 17.8581 99.2947 19.3197 99.2947 21.0171V21.4818ZM90.9175 17.7436C90.3753 18.2016 89.9686 18.7607 89.6975 19.4208H96.9157C96.6446 18.7607 96.238 18.2016 95.6958 17.7436C94.9909 17.1644 94.1911 16.8747 93.2965 16.8747C92.4154 16.8747 91.6224 17.1644 90.9175 17.7436Z" fill="white"/>
<path d="M109.706 25.7656C108.581 26.9241 107.232 27.5034 105.66 27.5034C104.684 27.5034 103.782 27.2407 102.956 26.7153C102.59 26.4863 102.257 26.2236 101.959 25.9273V31.2618H99.987V21.5829C99.987 19.9259 100.536 18.5317 101.634 17.4001C102.745 16.2281 104.094 15.6421 105.68 15.6421C107.239 15.6421 108.581 16.2281 109.706 17.4001C110.804 18.5317 111.353 19.9192 111.353 21.5627C111.353 23.2196 110.804 24.6206 109.706 25.7656ZM105.66 17.6022C104.643 17.6022 103.776 17.9928 103.057 18.7742C102.325 19.542 101.959 20.4782 101.959 21.5829C101.959 22.6875 102.325 23.6237 103.057 24.3916C103.789 25.1594 104.657 25.5433 105.66 25.5433C106.663 25.5433 107.537 25.1594 108.283 24.3916C109.001 23.6103 109.361 22.674 109.361 21.5829C109.361 20.4917 109.001 19.5555 108.283 18.7742C107.537 17.9928 106.663 17.6022 105.66 17.6022Z" fill="white"/>
<path d="M124.151 22.6538L123.928 23.2802C123.48 24.4791 122.755 25.4423 121.752 26.1697C120.749 26.9107 119.61 27.2811 118.336 27.2811C116.655 27.2811 115.239 26.6682 114.086 25.4423C112.921 24.2434 112.338 22.7818 112.338 21.0575C112.338 19.3332 112.921 17.8581 114.086 16.6323C115.252 15.4064 116.669 14.7935 118.336 14.7935C119.583 14.7935 120.715 15.1639 121.732 15.9048C122.735 16.6323 123.453 17.582 123.887 18.754L124.131 19.3804H121.915L121.793 19.1177C121.454 18.4306 120.979 17.8851 120.369 17.4809C119.732 17.0768 119.054 16.8747 118.336 16.8747C117.252 16.8747 116.337 17.2789 115.591 18.0871C114.818 18.8954 114.432 19.8788 114.432 21.0373C114.432 22.1958 114.818 23.1859 115.591 24.0077C116.337 24.8159 117.252 25.22 118.336 25.22C119.081 25.22 119.766 25.0112 120.39 24.5936C121.013 24.1626 121.488 23.6035 121.813 22.9165L121.935 22.6538H124.151Z" fill="white"/>
<path d="M134.949 16.9556C136.074 18.141 136.637 19.569 136.637 21.2394C136.637 22.8963 136.074 24.3175 134.949 25.5029C133.81 26.6884 132.434 27.2811 130.821 27.2811C129.208 27.2811 127.832 26.6884 126.694 25.5029C125.569 24.3175 125.006 22.8963 125.006 21.2394C125.006 19.569 125.569 18.141 126.694 16.9556C127.832 15.7567 129.208 15.1572 130.821 15.1572C132.434 15.1572 133.81 15.7567 134.949 16.9556ZM130.821 25.2605C131.879 25.2605 132.773 24.8698 133.505 24.0885C134.251 23.2802 134.624 22.3238 134.624 21.2191C134.624 20.1145 134.251 19.1581 133.505 18.3498C132.76 17.5685 131.865 17.1778 130.821 17.1778C129.791 17.1778 128.903 17.5685 128.158 18.3498C127.412 19.1581 127.039 20.1145 127.039 21.2191C127.039 22.3238 127.412 23.2802 128.158 24.0885C128.89 24.8698 129.778 25.2605 130.821 25.2605Z" fill="white"/>
<path d="M138.746 17.0768C139.858 15.9048 141.22 15.3188 142.833 15.3188C143.809 15.3188 144.717 15.5815 145.558 16.1069C145.951 16.3359 146.29 16.6053 146.574 16.9152V11.52H148.567V21.3C148.567 22.9704 148.011 24.3781 146.9 25.5231C145.788 26.7086 144.426 27.3013 142.813 27.3013C141.213 27.3013 139.858 26.7086 138.746 25.5231C137.635 24.3781 137.079 22.9771 137.079 21.3202C137.079 19.6363 137.635 18.2218 138.746 17.0768ZM142.833 25.3211C143.863 25.3211 144.738 24.9237 145.456 24.1289C145.836 23.7382 146.113 23.3072 146.29 22.8357C146.479 22.3642 146.574 21.8523 146.574 21.3C146.574 20.1819 146.202 19.2322 145.456 18.4509C144.724 17.683 143.85 17.2991 142.833 17.2991C141.816 17.2991 140.935 17.683 140.19 18.4509C139.458 19.2456 139.092 20.1954 139.092 21.3C139.092 22.4181 139.458 23.361 140.19 24.1289C140.922 24.9237 141.803 25.3211 142.833 25.3211Z" fill="white"/>
<path d="M161.187 21.4818H151.326C151.407 22.4517 151.787 23.2937 152.464 24.0077C153.21 24.8159 154.125 25.22 155.209 25.22C155.941 25.22 156.612 25.018 157.222 24.6138C157.832 24.2232 158.307 23.6776 158.646 22.9771L158.768 22.7144H161.004L160.76 23.3408C160.327 24.5128 159.608 25.4625 158.605 26.19C157.602 26.9174 156.47 27.2811 155.209 27.2811C153.529 27.2811 152.112 26.6682 150.96 25.4423C149.794 24.2434 149.211 22.7818 149.211 21.0575C149.211 19.3332 149.794 17.8581 150.96 16.6323C152.126 15.4064 153.542 14.7935 155.209 14.7935C156.863 14.7935 158.273 15.4064 159.439 16.6323C160.604 17.8581 161.187 19.3197 161.187 21.0171V21.4818ZM152.81 17.7436C152.268 18.2016 151.861 18.7607 151.59 19.4208H158.808C158.537 18.7607 158.131 18.2016 157.588 17.7436C156.883 17.1644 156.084 16.8747 155.189 16.8747C154.308 16.8747 153.515 17.1644 152.81 17.7436Z" fill="white"/>
</svg>
