<svg width="146" height="50" viewBox="0 0 146 50" fill="none" xmlns="http://www.w3.org/2000/svg">
<path fill-rule="evenodd" clip-rule="evenodd" d="M9.74185 5.51206C4.90226 9.82143 2.23341 14.8102 3.7808 16.6548C5.32819 18.4993 10.5059 16.5011 15.3454 12.1918C20.185 7.88235 22.8539 2.89358 21.3065 1.04903C19.7591 -0.79552 14.5815 1.20265 9.74185 5.51206ZM10.0914 5.90789C8.00115 7.66068 7.10643 9.79111 7.73829 10.5909C8.37009 11.3906 10.2891 10.557 12.3794 8.80418C14.4698 7.05133 15.6523 4.98206 15.0204 4.18227C14.3886 3.38248 12.1818 4.15507 10.0914 5.90789Z" fill="white"/>
<path d="M10.9748 45.2331C19.3389 51.3294 47.5578 22.7867 45.4416 9.50681C43.3131 6.32891 42.1137 4.80202 39.9265 4.22131C44.1368 10.7471 32.0894 27.5921 23.1892 34.6791C14.4533 41.0883 9.47201 44.5711 6.67627 38.6762C7.52334 42.0671 8.22746 41.9974 10.9748 45.2331Z" fill="white"/>
<path d="M21.8424 48.4214C30.1469 45.7126 48.0065 27.6427 48.3272 17.4021C49.1458 17.5179 49.51 18.6807 50.0266 22.3242C49.6738 29.6248 36.2391 47.5294 24.8564 49.6106C21.3298 49.6261 20.7751 49.3443 21.8424 48.4214Z" fill="white"/>
<path d="M23.4454 44.8537C20.829 44.6158 18.1548 43.6424 17.2249 43.2019C16.1328 44.8514 15.9775 48.2271 17.4494 48.5205C17.7083 49.0319 22.4129 49.6474 24.6317 49.6106C22.3009 49.4163 22.2911 47.2651 23.4454 44.8537Z" fill="white"/>
<path d="M5.84238 40.1298C5.71411 39.1498 6.04632 37.011 8.15113 33.5229C18.1557 18.6387 41.9985 5.23605 47.9424 13.4049C49.57 17.248 50.1227 19.0208 49.9945 22.4564C49.0233 16.0984 44.4645 16.0986 34.8924 19.5823C24.9936 23.6555 8.76271 37.7217 10.8445 45.0849C8.66963 43.3031 7.54304 42.2399 5.84238 40.1298Z" fill="white"/>
<path d="M3.18115 24.4384C3.64287 20.1043 6.43029 14.0876 7.76629 11.621C7.98002 12.4029 8.57079 14.6951 8.92062 14.3299C16.0903 6.84435 30.5316 -0.733815 37.0406 1.5125C39.7079 2.07252 43.8144 6.67897 45.4414 9.50683C39.2033 2.27627 23.3655 7.43315 11.133 19.0868C11.3125 19.5889 12.811 21.8066 13.5378 22.8527C9.53632 23.5337 7.28987 23.911 3.18115 24.4384Z" fill="white"/>
<path fill-rule="evenodd" clip-rule="evenodd" d="M41.2543 42.9398C45.9467 38.7615 48.5342 33.9247 47.0339 32.1362C45.5337 30.3478 40.5137 32.2852 35.8214 36.4634C31.1292 40.6416 28.5415 45.4785 30.0419 47.2669C31.5422 49.0552 36.5622 47.1179 41.2543 42.9398ZM40.9154 42.556C42.9421 40.8565 43.8096 38.791 43.197 38.0156C42.5845 37.2401 40.7237 38.0484 38.6971 39.7478C36.6704 41.4473 35.524 43.4536 36.1365 44.229C36.7491 45.0044 38.8887 44.2554 40.9154 42.556Z" fill="white"/>
<path d="M60.36 37.228C60.6009 37.228 60.8569 37.2356 61.1279 37.2506C61.3989 37.2657 61.6662 37.2845 61.9297 37.3071C62.2007 37.3297 62.4492 37.3598 62.675 37.3974L62.596 38.0974C62.2496 38.0824 61.8995 38.0711 61.5457 38.0635C61.1994 38.0485 60.8531 38.0409 60.5068 38.0409C60.168 38.0334 59.9007 38.0409 59.705 38.0635C59.5092 38.0861 59.3662 38.1463 59.2759 38.2442C59.193 38.3421 59.1517 38.5076 59.1517 38.7409C59.1517 39.027 59.2194 39.2151 59.3549 39.3055C59.4904 39.3958 59.6899 39.4711 59.9534 39.5313L61.557 39.8926C61.9937 39.998 62.3136 40.1598 62.5169 40.378C62.7277 40.5963 62.8331 40.9388 62.8331 41.4055C62.8331 41.8571 62.7465 42.1958 62.5734 42.4216C62.4077 42.6474 62.1518 42.798 61.8055 42.8732C61.4591 42.9485 61.0187 42.9861 60.4842 42.9861C60.2884 42.9861 59.9948 42.9786 59.6034 42.9635C59.2194 42.9485 58.794 42.9034 58.3273 42.828L58.395 42.128C58.5757 42.1356 58.7677 42.1469 58.971 42.1619C59.1742 42.1695 59.385 42.1732 59.6034 42.1732C59.8292 42.1732 60.0588 42.1732 60.2922 42.1732C60.7063 42.1732 61.03 42.1544 61.2634 42.1168C61.4968 42.0792 61.6624 42.0076 61.7603 41.9022C61.8581 41.7893 61.9071 41.6238 61.9071 41.4055C61.9071 41.1345 61.8281 40.9538 61.67 40.8635C61.5119 40.7732 61.301 40.698 61.0376 40.6377L59.4566 40.2764C59.1554 40.2012 58.9145 40.1034 58.7338 39.9829C58.5531 39.855 58.4213 39.6931 58.3386 39.4974C58.2557 39.2942 58.2144 39.0421 58.2144 38.7409C58.2144 38.3119 58.2896 37.9883 58.4402 37.77C58.5907 37.5518 58.8242 37.405 59.1404 37.3297C59.4566 37.2544 59.8631 37.2205 60.36 37.228ZM70.9618 37.228C71.4361 37.228 71.7974 37.356 72.0459 37.6119C72.3019 37.8679 72.4298 38.2442 72.4298 38.7409V42.8619H71.4812V39.0119C71.4737 38.6732 71.406 38.4286 71.278 38.278C71.15 38.12 70.9317 38.0409 70.623 38.0409C70.4273 38.0409 70.239 38.0748 70.0583 38.1426C69.8852 38.2028 69.6933 38.3006 69.4824 38.4361C69.2716 38.5716 69.0157 38.7485 68.7145 38.9668L68.658 38.2893C69.0571 37.9356 69.4448 37.6722 69.8212 37.499C70.1976 37.3184 70.5778 37.228 70.9618 37.228ZM65.0556 37.3635L65.1234 38.4135L65.225 38.5829V42.8619H64.2651V37.3635H65.0556ZM67.3594 37.228C67.8262 37.228 68.1837 37.356 68.4322 37.6119C68.6806 37.8603 68.8086 38.2367 68.8161 38.7409V42.8619H67.8901V39.0119C67.8901 38.6582 67.8187 38.4098 67.6756 38.2668C67.5325 38.1163 67.318 38.0409 67.0319 38.0409C66.8437 38.0409 66.6592 38.0711 66.4785 38.1313C66.3054 38.1915 66.1097 38.2893 65.8913 38.4248C65.6805 38.5603 65.4208 38.7409 65.1121 38.9668L65.0443 38.2893C65.4434 37.9356 65.8311 37.6722 66.2075 37.499C66.5839 37.3184 66.9679 37.228 67.3594 37.228ZM75.9868 37.228C76.2278 37.228 76.4837 37.2356 76.7547 37.2506C77.0258 37.2657 77.2931 37.2845 77.5565 37.3071C77.8276 37.3297 78.076 37.3598 78.3019 37.3974L78.2228 38.0974C77.8765 38.0824 77.5264 38.0711 77.1726 38.0635C76.8263 38.0485 76.48 38.0409 76.1336 38.0409C75.7949 38.0334 75.5276 38.0409 75.3318 38.0635C75.1362 38.0861 74.9931 38.1463 74.9027 38.2442C74.82 38.3421 74.7785 38.5076 74.7785 38.7409C74.7785 39.027 74.8463 39.2151 74.9818 39.3055C75.1173 39.3958 75.3168 39.4711 75.5803 39.5313L77.1839 39.8926C77.6206 39.998 77.9405 40.1598 78.1438 40.378C78.3546 40.5963 78.46 40.9388 78.46 41.4055C78.46 41.8571 78.3734 42.1958 78.2002 42.4216C78.0346 42.6474 77.7787 42.798 77.4323 42.8732C77.086 42.9485 76.6456 42.9861 76.111 42.9861C75.9154 42.9861 75.6218 42.9786 75.2302 42.9635C74.8463 42.9485 74.4209 42.9034 73.9541 42.828L74.0219 42.128C74.2026 42.1356 74.3945 42.1469 74.5978 42.1619C74.8011 42.1695 75.0119 42.1732 75.2302 42.1732C75.4561 42.1732 75.6857 42.1732 75.9191 42.1732C76.3332 42.1732 76.6569 42.1544 76.8903 42.1168C77.1237 42.0792 77.2893 42.0076 77.3871 41.9022C77.4851 41.7893 77.5339 41.6238 77.5339 41.4055C77.5339 41.1345 77.4549 40.9538 77.2968 40.8635C77.1387 40.7732 76.9279 40.698 76.6644 40.6377L75.0834 40.2764C74.7823 40.2012 74.5413 40.1034 74.3607 39.9829C74.18 39.855 74.0483 39.6931 73.9654 39.4974C73.8827 39.2942 73.8412 39.0421 73.8412 38.7409C73.8412 38.3119 73.9165 37.9883 74.0671 37.77C74.2176 37.5518 74.451 37.405 74.7672 37.3297C75.0834 37.2544 75.4899 37.2205 75.9868 37.228ZM83.2684 39.6442V40.378H79.8243V39.6442H83.2684ZM87.5621 37.228C87.9687 37.228 88.3115 37.2845 88.5898 37.3974C88.8761 37.5028 89.0907 37.6834 89.2335 37.9393C89.377 38.1953 89.448 38.5453 89.448 38.9893V42.8619H88.6914L88.5446 41.6651L88.4768 41.5409V38.9893C88.4768 38.6506 88.3978 38.4098 88.2397 38.2668C88.0897 38.1163 87.7961 38.0409 87.3589 38.0409C87.0733 38.0409 86.7119 38.056 86.2747 38.0861C85.8456 38.1163 85.4205 38.1501 84.9987 38.1877L84.9083 37.4764C85.1648 37.4313 85.4431 37.3899 85.744 37.3522C86.0529 37.3147 86.3651 37.2845 86.6813 37.2619C86.9975 37.2393 87.2911 37.228 87.5621 37.228ZM88.9963 39.4748L88.985 40.1974L86.3538 40.2087C86.0908 40.2163 85.9061 40.2877 85.8005 40.4232C85.6956 40.5512 85.6423 40.7318 85.6423 40.9651V41.3151C85.6423 41.6012 85.7101 41.8119 85.8456 41.9474C85.9811 42.0754 86.1997 42.1393 86.5006 42.1393C86.7119 42.1393 86.9491 42.1018 87.2121 42.0264C87.4831 41.9437 87.7541 41.8195 88.0251 41.6538C88.2962 41.4883 88.5446 41.2776 88.7705 41.0216V41.7329C88.6882 41.8383 88.5672 41.9625 88.4091 42.1055C88.2591 42.2409 88.0743 42.3764 87.8557 42.5119C87.6452 42.6399 87.4081 42.749 87.1443 42.8393C86.8886 42.9222 86.6103 42.9635 86.3086 42.9635C85.9852 42.9635 85.6988 42.9071 85.4504 42.7942C85.2019 42.6738 85.0067 42.5006 84.8631 42.2748C84.7276 42.0415 84.6599 41.7593 84.6599 41.428V40.8297C84.6599 40.4006 84.7922 40.0695 85.0551 39.8361C85.3262 39.5953 85.7028 39.4748 86.1844 39.4748H88.9963ZM93.5118 37.228C93.6772 37.228 93.8619 37.2356 94.0652 37.2506C94.2684 37.2657 94.4758 37.2921 94.6863 37.3297C94.9049 37.3673 95.1041 37.42 95.2848 37.4877L95.1606 38.1087C94.9121 38.0861 94.6484 38.0711 94.3701 38.0635C94.0991 38.0485 93.8659 38.0409 93.6699 38.0409C93.2335 38.0409 92.8867 38.1012 92.631 38.2216C92.3753 38.3421 92.1906 38.5528 92.0776 38.8538C91.9647 39.155 91.9083 39.5727 91.9083 40.1071C91.9083 40.6415 91.9647 41.063 92.0776 41.3716C92.1906 41.6727 92.3753 41.8834 92.631 42.0038C92.8867 42.1243 93.2335 42.1845 93.6699 42.1845C93.7829 42.1845 93.9297 42.1808 94.1103 42.1732C94.291 42.1657 94.483 42.1544 94.6863 42.1393C94.8968 42.1243 95.0969 42.1018 95.2848 42.0716L95.3864 42.7151C95.1082 42.813 94.8032 42.8845 94.4717 42.9297C94.1483 42.9748 93.824 42.9974 93.5005 42.9974C92.8681 42.9974 92.36 42.9034 91.976 42.7151C91.5921 42.527 91.3138 42.2222 91.1403 41.8006C90.975 41.3792 90.8919 40.8147 90.8919 40.1071C90.8919 39.3996 90.9782 38.8351 91.1516 38.4135C91.3251 37.9921 91.6033 37.6909 91.9873 37.5103C92.3713 37.3222 92.8794 37.228 93.5118 37.228ZM98.0653 35.7377V41.349C98.0653 41.6125 98.1217 41.8006 98.2346 41.9135C98.3476 42.0264 98.5396 42.0829 98.8106 42.0829H99.6462L99.7592 42.8168C99.639 42.8469 99.4994 42.8732 99.3413 42.8958C99.1832 42.9184 99.0292 42.9334 98.8783 42.9409C98.7283 42.956 98.6073 42.9635 98.517 42.9635C98.058 42.9635 97.7079 42.8356 97.4667 42.5797C97.2264 42.3238 97.1054 41.955 97.1054 41.4732V35.7377H98.0653ZM99.8156 37.3635V38.12H96.1116V37.42L97.1957 37.3635H99.8156ZM101.982 37.3635V42.8619H101.034V37.3635H101.982ZM101.734 35.0264C101.93 35.0264 102.027 35.1243 102.027 35.32V35.9635C102.027 36.1592 101.93 36.2571 101.734 36.2571H101.282C101.087 36.2571 100.988 36.1592 100.988 35.9635V35.32C100.988 35.1243 101.087 35.0264 101.282 35.0264H101.734ZM108.68 37.3635L106.67 42.6248C106.64 42.7001 106.595 42.7603 106.534 42.8055C106.482 42.8431 106.414 42.8619 106.331 42.8619H105.461C105.386 42.8619 105.318 42.8431 105.258 42.8055C105.197 42.7603 105.152 42.7001 105.122 42.6248L103.112 37.3635H104.14L105.495 41.2135C105.556 41.3716 105.612 41.5334 105.665 41.699C105.717 41.8647 105.77 42.0227 105.823 42.1732H105.969C106.03 42.0151 106.086 41.8571 106.139 41.699C106.199 41.5334 106.256 41.3716 106.308 41.2135L107.663 37.3635H108.68ZM112.321 37.228C112.727 37.228 113.069 37.2845 113.348 37.3974C113.634 37.5028 113.849 37.6834 113.992 37.9393C114.135 38.1953 114.207 38.5453 114.207 38.9893V42.8619H113.45L113.303 41.6651L113.236 41.5409V38.9893C113.236 38.6506 113.156 38.4098 112.998 38.2668C112.848 38.1163 112.554 38.0409 112.118 38.0409C111.831 38.0409 111.47 38.056 111.033 38.0861C110.604 38.1163 110.178 38.1501 109.757 38.1877L109.667 37.4764C109.923 37.4313 110.201 37.3899 110.503 37.3522C110.811 37.3147 111.124 37.2845 111.44 37.2619C111.756 37.2393 112.05 37.228 112.321 37.228ZM113.755 39.4748L113.744 40.1974L111.112 40.2087C110.849 40.2163 110.664 40.2877 110.559 40.4232C110.453 40.5512 110.401 40.7318 110.401 40.9651V41.3151C110.401 41.6012 110.469 41.8119 110.604 41.9474C110.74 42.0754 110.958 42.1393 111.259 42.1393C111.47 42.1393 111.707 42.1018 111.971 42.0264C112.242 41.9437 112.513 41.8195 112.784 41.6538C113.055 41.4883 113.303 41.2776 113.529 41.0216V41.7329C113.446 41.8383 113.326 41.9625 113.168 42.1055C113.017 42.2409 112.832 42.3764 112.614 42.5119C112.403 42.6399 112.166 42.749 111.903 42.8393C111.646 42.9222 111.368 42.9635 111.067 42.9635C110.743 42.9635 110.458 42.9071 110.209 42.7942C109.961 42.6738 109.765 42.5006 109.622 42.2748C109.486 42.0415 109.419 41.7593 109.419 41.428V40.8297C109.419 40.4006 109.55 40.0695 109.814 39.8361C110.085 39.5953 110.461 39.4748 110.943 39.4748H113.755ZM117.299 35.7377V41.349C117.299 41.6125 117.355 41.8006 117.468 41.9135C117.581 42.0264 117.773 42.0829 118.044 42.0829H118.88L118.992 42.8168C118.872 42.8469 118.733 42.8732 118.575 42.8958C118.417 42.9184 118.262 42.9334 118.112 42.9409C117.962 42.956 117.841 42.9635 117.75 42.9635C117.291 42.9635 116.941 42.8356 116.7 42.5797C116.46 42.3238 116.339 41.955 116.339 41.4732V35.7377H117.299ZM119.049 37.3635V38.12H115.345V37.42L116.429 37.3635H119.049ZM122.48 37.228C123.309 37.228 123.907 37.3786 124.276 37.6797C124.653 37.9808 124.841 38.4286 124.841 39.0232C124.849 39.5125 124.747 39.8963 124.536 40.1748C124.325 40.4458 123.99 40.5813 123.531 40.5813H120.323V39.8361H123.282C123.531 39.8361 123.693 39.7534 123.768 39.5877C123.844 39.4147 123.881 39.2264 123.881 39.0232C123.873 38.6695 123.768 38.4173 123.564 38.2668C123.361 38.1163 123.015 38.0409 122.525 38.0409C122.127 38.0409 121.811 38.1012 121.577 38.2216C121.351 38.3345 121.19 38.5377 121.091 38.8313C121.001 39.1173 120.956 39.52 120.956 40.0393C120.956 40.6264 121.012 41.0743 121.125 41.3829C121.246 41.6915 121.434 41.9022 121.69 42.0151C121.946 42.128 122.285 42.1845 122.706 42.1845C123 42.1845 123.32 42.1732 123.666 42.1506C124.02 42.1205 124.336 42.0867 124.615 42.049L124.716 42.6926C124.544 42.7603 124.329 42.8168 124.073 42.8619C123.824 42.9071 123.564 42.9409 123.293 42.9635C123.03 42.9861 122.793 42.9974 122.582 42.9974C121.95 42.9974 121.441 42.9034 121.057 42.7151C120.673 42.5195 120.391 42.2109 120.21 41.7893C120.038 41.3603 119.951 40.7958 119.951 40.0958C119.951 39.3732 120.038 38.805 120.21 38.3909C120.391 37.9695 120.666 37.6722 121.035 37.499C121.412 37.3184 121.893 37.228 122.48 37.228ZM126.852 41.5297C126.988 41.5297 127.081 41.556 127.135 41.6087C127.187 41.6614 127.214 41.7555 127.214 41.8909V42.5006C127.214 42.6361 127.187 42.7302 127.135 42.7829C127.081 42.8356 126.988 42.8619 126.852 42.8619H126.536C126.408 42.8619 126.313 42.8356 126.254 42.7829C126.201 42.7302 126.175 42.6361 126.175 42.5006V41.8909C126.175 41.7555 126.201 41.6614 126.254 41.6087C126.313 41.556 126.408 41.5297 126.536 41.5297H126.852ZM131.194 37.228C131.827 37.228 132.331 37.3222 132.708 37.5103C133.092 37.6985 133.367 38.0071 133.532 38.4361C133.697 38.8576 133.78 39.4184 133.78 40.1184C133.78 40.8184 133.697 41.3829 133.532 41.8119C133.367 42.2334 133.092 42.5383 132.708 42.7264C132.331 42.9147 131.827 43.0087 131.194 43.0087C130.569 43.0087 130.065 42.9147 129.681 42.7264C129.304 42.5383 129.03 42.2334 128.857 41.8119C128.691 41.3829 128.608 40.8184 128.608 40.1184C128.608 39.4184 128.691 38.8576 128.857 38.4361C129.03 38.0071 129.304 37.6985 129.681 37.5103C130.065 37.3222 130.569 37.228 131.194 37.228ZM131.194 38.0409C130.795 38.0409 130.479 38.105 130.246 38.2329C130.02 38.3534 129.858 38.5641 129.76 38.8651C129.663 39.1663 129.613 39.584 129.613 40.1184C129.613 40.6528 129.663 41.0705 129.76 41.3716C129.858 41.6727 130.02 41.8872 130.246 42.0151C130.479 42.1356 130.795 42.1958 131.194 42.1958C131.594 42.1958 131.91 42.1356 132.143 42.0151C132.376 41.8872 132.542 41.6727 132.64 41.3716C132.737 41.0705 132.787 40.6528 132.787 40.1184C132.787 39.584 132.737 39.1663 132.64 38.8651C132.542 38.5641 132.376 38.3534 132.143 38.2329C131.91 38.105 131.594 38.0409 131.194 38.0409ZM136.032 37.3635L136.156 38.4135L136.246 38.5829V42.8619H135.286V37.3635H136.032ZM138.731 37.228L138.618 38.1313H138.302C137.978 38.1313 137.654 38.199 137.33 38.3345C137.007 38.4625 136.612 38.6469 136.145 38.8877L136.066 38.2893C136.472 37.9582 136.879 37.6985 137.285 37.5103C137.699 37.3222 138.098 37.228 138.482 37.228H138.731ZM141.954 37.228C142.541 37.228 143.004 37.2883 143.343 37.4087C143.69 37.5292 143.934 37.7173 144.077 37.9732C144.228 38.2292 144.303 38.5641 144.303 38.978C144.303 39.377 144.228 39.7082 144.077 39.9716C143.934 40.2276 143.69 40.4195 143.343 40.5474C142.997 40.6679 142.53 40.728 141.943 40.728C141.355 40.728 140.889 40.6679 140.542 40.5474C140.204 40.4195 139.959 40.2276 139.808 39.9716C139.666 39.7157 139.594 39.3883 139.594 38.9893C139.594 38.5754 139.666 38.2405 139.808 37.9845C139.959 37.7211 140.208 37.5292 140.554 37.4087C140.901 37.2883 141.367 37.228 141.954 37.228ZM141.943 37.9619C141.393 37.9619 141.009 38.0409 140.791 38.199C140.58 38.3496 140.475 38.6093 140.475 38.978C140.475 39.3393 140.58 39.599 140.791 39.7571C141.009 39.9151 141.393 39.9942 141.943 39.9942C142.5 39.9942 142.884 39.9151 143.095 39.7571C143.306 39.599 143.411 39.3393 143.411 38.978C143.411 38.6093 143.306 38.3496 143.095 38.199C142.884 38.0409 142.5 37.9619 141.943 37.9619ZM144.947 37.3635L144.89 37.8942L143.49 38.0071L143.095 37.3635H144.947ZM140.396 40.3667L140.949 40.4458C140.821 40.5587 140.734 40.698 140.689 40.8635C140.644 41.0216 140.655 41.1684 140.723 41.3038C140.799 41.4393 140.953 41.5259 141.186 41.5635L143.241 41.8909C143.761 41.9663 144.122 42.128 144.325 42.3764C144.529 42.6248 144.63 42.9786 144.63 43.4377C144.63 43.8668 144.548 44.2055 144.382 44.4538C144.224 44.7022 143.953 44.8792 143.569 44.9845C143.185 45.0899 142.665 45.1426 142.01 45.1426C141.514 45.1426 141.096 45.1125 140.757 45.0522C140.418 44.9996 140.144 44.9055 139.933 44.77C139.729 44.6421 139.583 44.4727 139.492 44.2619C139.402 44.0512 139.357 43.7877 139.357 43.4716C139.357 43.2308 139.391 43.0276 139.458 42.8619C139.534 42.7038 139.647 42.5609 139.797 42.4329C139.955 42.305 140.158 42.1808 140.407 42.0603L141.084 41.6877L141.525 41.8458L140.972 42.2635C140.821 42.3764 140.693 42.4893 140.588 42.6022C140.49 42.7076 140.415 42.8205 140.362 42.9409C140.317 43.0689 140.294 43.2195 140.294 43.3926C140.294 43.6485 140.343 43.8442 140.441 43.9797C140.539 44.1151 140.712 44.2055 140.96 44.2506C141.209 44.3034 141.556 44.3297 141.999 44.3297C142.444 44.3297 142.786 44.3034 143.027 44.2506C143.275 44.198 143.449 44.1038 143.546 43.9684C143.645 43.8329 143.693 43.6409 143.693 43.3926C143.693 43.2044 143.667 43.0614 143.614 42.9635C143.569 42.8657 143.479 42.7905 143.343 42.7377C143.207 42.6851 143.008 42.6399 142.744 42.6022L140.768 42.3313C140.535 42.3012 140.347 42.2259 140.204 42.1055C140.068 41.9851 139.975 41.8421 139.921 41.6764C139.869 41.5109 139.854 41.3453 139.876 41.1797C139.899 41.0066 139.955 40.8485 140.045 40.7055C140.136 40.555 140.253 40.4421 140.396 40.3667Z" fill="white"/>
<path d="M65.892 11.7742C67.5611 11.7742 68.869 11.9462 69.8154 12.2903C70.7618 12.6344 71.433 13.228 71.8288 14.071C72.2418 14.9139 72.4483 16.0925 72.4483 17.6064C72.4483 19.1204 72.2504 20.2989 71.8546 21.1419C71.476 21.9849 70.8479 22.5785 69.9703 22.9226C69.0927 23.2494 67.9053 23.4129 66.4082 23.4129C65.6167 23.4129 64.8423 23.3785 64.0851 23.3097C63.3279 23.2409 62.6225 23.1548 61.9685 23.0516C61.3146 22.9484 60.7554 22.8452 60.2907 22.7419C59.8261 22.6215 59.5077 22.5097 59.3357 22.4064L59.4131 20.4452C60.4284 20.4452 61.4781 20.4452 62.5622 20.4452C63.6635 20.4452 64.7476 20.4452 65.8145 20.4452C66.5028 20.428 67.0363 20.3419 67.4149 20.1871C67.8107 20.0322 68.086 19.7484 68.2409 19.3355C68.4129 18.9226 68.499 18.3462 68.499 17.6064C68.499 16.8494 68.4129 16.2645 68.2409 15.8516C68.086 15.4387 67.8107 15.1548 67.4149 15C67.0363 14.828 66.5028 14.7419 65.8145 14.7419C64.2314 14.7419 62.872 14.7506 61.7362 14.7677C60.6005 14.7849 59.8348 14.8193 59.4389 14.871L59.0518 12.0322C59.7745 11.9462 60.4542 11.886 61.0909 11.8516C61.7276 11.8172 62.416 11.8 63.1559 11.8C63.9131 11.7828 64.8251 11.7742 65.892 11.7742ZM63.001 12.0322V29.8387H59.0518V12.0322H63.001ZM81.8737 11.7742C83.4402 11.7742 84.705 11.9377 85.6681 12.2645C86.649 12.5742 87.3637 13.1161 87.8105 13.8903C88.2752 14.6473 88.5075 15.7054 88.5075 17.0645C88.5075 17.8903 88.3961 18.6215 88.1719 19.2581C87.9654 19.8774 87.6129 20.3764 87.1136 20.7548C86.6151 21.1333 85.9351 21.3742 85.0744 21.4774V21.6064C85.3842 21.6581 85.7028 21.7785 86.0295 21.9677C86.3739 22.157 86.6925 22.4409 86.9845 22.8193C87.2773 23.1806 87.4927 23.671 87.6298 24.2903L89.1786 29.8387H85.0228L83.6548 24.4193C83.4999 23.8344 83.2676 23.4301 82.9578 23.2064C82.6658 22.9828 82.2529 22.871 81.7189 22.871C80.5489 22.871 79.5594 22.871 78.7507 22.871C77.9591 22.8538 77.288 22.8365 76.7374 22.8193C76.2039 22.8022 75.7221 22.7849 75.2919 22.7677L75.3693 19.9032H81.7963C82.4852 19.9032 83.0272 19.8344 83.4225 19.6968C83.8355 19.5419 84.1194 19.2752 84.2743 18.8968C84.4469 18.5183 84.5324 17.9935 84.5324 17.3226C84.5324 16.6344 84.4469 16.1097 84.2743 15.7484C84.1194 15.3699 83.8355 15.1118 83.4225 14.9742C83.0272 14.8193 82.4852 14.7419 81.7963 14.7419C80.1789 14.7419 78.8109 14.7506 77.6924 14.7677C76.5739 14.7849 75.8081 14.8107 75.3951 14.8452L75.0079 12.0322C75.7307 11.9462 76.4104 11.886 77.0471 11.8516C77.6838 11.8172 78.3807 11.8 79.1379 11.8C79.895 11.7828 80.8074 11.7742 81.8737 11.7742ZM78.9056 12.0322V29.8387H75.0079V12.0322H78.9056ZM98.7428 11.671C100.154 11.671 101.35 11.8258 102.331 12.1355C103.312 12.428 104.095 12.9268 104.68 13.6322C105.282 14.3204 105.721 15.2667 105.996 16.471C106.272 17.6581 106.409 19.1462 106.409 20.9355C106.409 22.7247 106.272 24.2215 105.996 25.4258C105.721 26.6129 105.282 27.5591 104.68 28.2645C104.095 28.9527 103.312 29.4516 102.331 29.7613C101.35 30.0538 100.154 30.2 98.7428 30.2C97.332 30.2 96.1358 30.0538 95.1549 29.7613C94.174 29.4516 93.3827 28.9527 92.7802 28.2645C92.1784 27.5591 91.7396 26.6129 91.4638 25.4258C91.1887 24.2215 91.0508 22.7247 91.0508 20.9355C91.0508 19.1462 91.1887 17.6581 91.4638 16.471C91.7396 15.2667 92.1784 14.3204 92.7802 13.6322C93.3827 12.9268 94.174 12.428 95.1549 12.1355C96.1358 11.8258 97.332 11.671 98.7428 11.671ZM98.7428 14.7935C97.8313 14.7935 97.1166 14.9742 96.6004 15.3355C96.1019 15.6968 95.7405 16.3247 95.5163 17.2193C95.3098 18.0968 95.2065 19.3355 95.2065 20.9355C95.2065 22.5183 95.3098 23.757 95.5163 24.6516C95.7405 25.5462 96.1019 26.1742 96.6004 26.5355C97.1166 26.8968 97.8313 27.0774 98.7428 27.0774C99.6381 27.0774 100.335 26.8968 100.834 26.5355C101.35 26.1742 101.711 25.5462 101.918 24.6516C102.142 23.757 102.253 22.5183 102.253 20.9355C102.253 19.3355 102.142 18.0968 101.918 17.2193C101.711 16.3247 101.35 15.6968 100.834 15.3355C100.335 14.9742 99.6381 14.7935 98.7428 14.7935ZM123.16 12.0322L118.772 20.7032L123.496 29.8387H119.469L115.029 20.7032L119.159 12.0322H123.16ZM111.725 12.0322L115.855 20.7032L111.416 29.8387H107.389L112.087 20.7032L107.725 12.0322H111.725ZM117.353 19.4387V21.8645H113.3V19.4387H117.353ZM139.513 12.0322L133.499 24.1871H129.782L123.742 12.0322H127.846L130.84 18.5871C130.995 18.9312 131.124 19.301 131.227 19.6968C131.331 20.0925 131.426 20.471 131.511 20.8323H131.769C131.873 20.471 131.976 20.0925 132.079 19.6968C132.182 19.301 132.303 18.9312 132.441 18.5871L135.409 12.0322H139.513ZM133.602 21.7871V29.8387H129.653V21.7871H133.602Z" fill="white"/>
</svg>
