<svg width="91" height="33" viewBox="0 0 91 33" fill="none" xmlns="http://www.w3.org/2000/svg">
<path d="M35.5158 23.6608C34.054 26.5675 31.7035 29.3151 28.4189 29.6792C25.3698 29.9498 24.3403 28.838 23.8771 28.1008C23.4139 27.3656 23.1457 25.8931 23.6243 24.8892C23.8192 24.3833 24.1058 23.9755 24.4416 23.6608H0.643066V32.884H86.7526L90.6431 23.6608H35.5158ZM26.9436 27.3048C27.2832 27.2822 27.839 27.2626 28.786 26.6254C29.7775 25.9587 30.3111 24.9137 30.7679 23.6608H28.2221C28.3138 23.7996 28.3958 23.9525 28.4565 24.1363C28.839 25.2833 28.1947 26.6509 26.9951 26.8028C25.76 26.9597 25.4103 26.2911 25.4923 26.5519C25.558 26.7058 25.7809 27.3832 26.9436 27.3048Z" fill=""/>
<path d="M1.12619 19.9678H3.07144C3.07144 19.9678 8.84159 1.54793 8.86378 1.54893C8.84644 1.54793 7.42224 1.23226 6.06651 2.35184C4.71179 3.47137 3.24319 6.9448 3.24319 6.9448L2.08627 6.95654L4.18109 0.203882L18.591 0.19801L16.4306 6.94284L15.3094 6.95459C15.3094 6.95459 16.1209 3.9449 15.6838 2.96943C15.2447 1.99496 14.3059 1.35383 13.1712 1.54597C13.1712 1.54597 7.38459 19.9717 7.3672 19.9668C7.34986 19.9619 9.26325 19.9737 9.26711 19.9658C9.26325 19.9943 9.00947 21.3119 9.0066 21.3069L0.739258 21.3256L1.12619 19.9678Z" fill="#FFF"/>
<path d="M44.3165 1.54893L42.2352 1.55184C42.2352 1.55184 38.1768 14.1592 36.0299 20.7364C34.8507 24.3539 32.2793 28.741 28.2421 29.2086C25.3213 29.4792 24.3342 28.3675 23.8903 27.6302C23.4465 26.895 23.3509 25.8068 23.7273 24.9235C24.1277 23.7324 25.3821 22.9951 26.3557 22.9951C27.3274 22.9951 27.8127 23.3687 28.1379 24.1588C28.5132 25.0715 27.9034 26.4293 26.7484 26.5244C25.798 26.6038 25.5123 26.2352 25.5008 26.245C25.3445 26.3509 25.3666 26.5567 25.4419 26.7371C25.5037 26.891 25.8366 27.4009 26.6963 27.439C27.556 27.4773 28.5528 27.1322 29.316 26.3931C30.0802 25.6528 30.5916 24.7499 31.0616 23.3177C31.9724 20.5452 37.8478 1.54793 37.8478 1.54793L35.5194 1.54502L35.9392 0.157802L44.7179 0.160711L44.3165 1.54893Z" fill="#FFF"/>
<path d="M48.0503 8.2153C46.1581 8.91039 44.9268 11.9162 44.0073 14.0298C46.0249 13.5514 48.5867 11.5328 48.7778 8.64471C48.7604 8.23001 48.5481 8.09473 48.0503 8.2153ZM50.4972 7.15455C51.4922 7.62808 51.7422 8.96726 51.2664 10.377C50.3776 13.0063 46.8605 15.3297 43.6802 15.4944C43.4447 15.6493 43.2633 17.0012 43.2778 17.5483C43.2923 18.0973 43.4611 19.3541 44.4753 19.3541C45.4894 19.3541 47.1558 17.9159 48.1718 16.4512L49.3384 16.4336C48.0918 18.7923 46.1204 20.9334 43.4081 21.4246C41.9559 21.6363 40.2326 21.4952 39.2561 19.6413C38.2024 17.6394 39.4529 13.5945 41.2669 10.8829C43.081 8.17118 47.4809 5.72226 50.4972 7.15455Z" fill="#FFF"/>
<path d="M60.0988 2.06361L58.5376 6.93887H68.4761L68.2355 8.42215L58.0609 8.41924C58.0609 8.41924 55.7853 15.3219 54.8245 18.3767C54.7281 18.6835 54.3576 19.5884 54.9025 19.6463C55.4865 19.709 56.272 19.107 57.0758 18.3296C57.9853 17.4483 58.5865 16.2915 58.5865 16.2915H59.6057C59.0825 17.5728 57.9971 19.157 56.8045 20.1903C55.2034 21.5746 53.3473 21.9501 52.1814 21.7069C50.7284 21.4001 50.1351 20.4678 50.6291 17.9375C50.9917 16.0748 53.5963 8.44273 53.5963 8.44273H52.0569L52.5395 6.93887C52.5395 6.93887 54.0197 6.93887 53.9984 6.93887C54.0197 6.9595 55.2385 3.05962 55.5586 2.06361H60.0988Z" fill="#FFF"/>
<path d="M30.6159 8.2153C28.7228 8.91039 27.4916 11.9162 26.572 14.0298C28.5897 13.5514 31.1515 11.5328 31.3425 8.64471C31.3232 8.23001 31.1129 8.09473 30.6159 8.2153ZM33.062 7.15455C34.0578 7.62808 34.3058 8.96726 33.8301 10.377C32.9404 13.0063 29.4233 15.3297 26.2439 15.4944C26.0095 15.6493 25.8281 17.0012 25.8425 17.5483C25.8561 18.0973 26.0259 19.3541 27.039 19.3541C28.0541 19.3541 29.7196 17.9159 30.7366 16.4512L31.9012 16.4336C30.6555 18.7923 28.6852 20.9334 25.9728 21.4246C24.5197 21.6363 22.7973 21.4952 21.8208 19.6413C20.7671 17.6394 22.0157 13.5945 23.8307 10.8829C25.6457 8.17118 30.0457 5.72226 33.062 7.15455Z" fill="#FFF"/>
<path d="M19.5034 8.2153C17.6102 8.91039 16.3771 11.9162 15.4585 14.0298C17.477 13.5514 20.0379 11.5328 20.228 8.64471C20.2097 8.23001 20.0003 8.09473 19.5034 8.2153ZM21.9494 7.15455C22.9433 7.62808 23.1922 8.96726 22.7165 10.377C21.8268 13.0063 18.3098 15.3297 15.1294 15.4944C14.895 15.6493 14.7155 17.0012 14.728 17.5483C14.7415 18.0973 14.9114 19.3541 15.9264 19.3541C16.9415 19.3541 18.606 17.9159 19.623 16.4512L20.7906 16.4336C19.541 18.7923 17.5726 20.9334 14.8583 21.4246C13.407 21.6363 11.6838 21.4952 10.7063 19.6413C9.65258 17.6394 10.9031 13.5945 12.7172 10.8829C14.5321 8.17118 18.9321 5.72226 21.9494 7.15455Z" fill="#FFF"/>
<path d="M62.1514 4.5537C62.1514 3.95765 62.6281 3.47333 63.2126 3.47333C63.7985 3.47333 64.2752 3.95765 64.2752 4.5537C64.2752 5.14876 63.7985 5.63308 63.2126 5.63308C62.6281 5.63308 62.1514 5.14876 62.1514 4.5537ZM61.9824 4.5537C61.9824 5.24287 62.5333 5.80464 63.2126 5.80464C63.8929 5.80464 64.4457 5.24287 64.4457 4.5537C64.4457 3.86354 63.8929 3.30181 63.2126 3.30181C62.5333 3.30181 61.9824 3.86354 61.9824 4.5537Z" fill="#FFF"/>
<path d="M63.2102 4.47428C63.3781 4.47428 63.5288 4.46153 63.5288 4.25564C63.5288 4.09 63.3831 4.05958 63.2423 4.05958H62.9691V4.47428H63.2102ZM62.9691 5.22815H62.7725V3.88706H63.2729C63.5856 3.88706 63.7373 4.00467 63.7373 4.26839C63.7373 4.50761 63.5896 4.61252 63.3954 4.63701L63.7719 5.22815H63.5481L63.1988 4.64585H62.9691V5.22815Z" fill="#FFF"/>
<path d="M36.6557 26.6044H35.5068L35.6686 25.7783H38.901L38.7467 26.6044H37.5849L36.9139 30.1974H35.9845L36.6557 26.6044Z" fill="white"/>
<path d="M42.0703 28.3155H40.5279L40.3276 29.3909H42.0635L41.9085 30.1974H39.2437L40.0696 25.7783H42.6444L42.4896 26.5846H40.8506L40.6696 27.5224H42.2246L42.0703 28.3155Z" fill="white"/>
<path d="M46.485 30.0792C46.2525 30.1841 45.8656 30.2693 45.3426 30.2693C44.1876 30.2693 43.4199 29.5615 43.4199 28.3945C43.4199 27.3914 43.8586 26.6175 44.5166 26.1718C44.9688 25.8574 45.498 25.7062 46.1107 25.7062C46.5815 25.7062 46.9366 25.8181 47.0659 25.8901L46.8077 26.6571C46.6848 26.5917 46.3949 26.5126 46.0206 26.5126C45.6462 26.5126 45.2915 26.6307 45.0267 26.8538C44.6652 27.1616 44.4269 27.6665 44.4269 28.2826C44.4269 28.991 44.8202 29.4631 45.5819 29.4631C45.8916 29.4631 46.1946 29.4106 46.4079 29.319L46.485 30.0792Z" fill="white"/>
<path d="M49.3899 25.7783L49.0671 27.4963H50.6417L50.9639 25.7783H51.9001L51.074 30.1974H50.1447L50.4871 28.3357H48.9059L48.5637 30.1974H47.6348L48.4605 25.7783H49.3899Z" fill="white"/>
<path d="M52.5781 30.1974L53.4041 25.7783H54.495L55.0695 27.4636C55.2434 28.0273 55.3595 28.4861 55.4628 28.9714H55.4825C55.5018 28.5188 55.566 28.0336 55.6821 27.3847L55.979 25.7783H56.85L56.0245 30.1974H55.0626L54.4564 28.4337C54.2628 27.8306 54.1467 27.4308 54.0301 26.893H54.0108C53.9659 27.326 53.8626 27.9483 53.7337 28.6502L53.4432 30.1974H52.5781Z" fill="white"/>
<path d="M59.6006 29.4827C60.3491 29.4827 60.8589 28.4077 60.8589 27.5749C60.8589 27.0238 60.6653 26.493 59.981 26.493C59.2005 26.493 58.6906 27.5553 58.6906 28.3945C58.6906 29.0168 58.9683 29.4827 59.5942 29.4827H59.6006ZM59.4717 30.2693C58.3423 30.2693 57.71 29.4566 57.71 28.4273C57.71 27.6337 58.0005 26.8538 58.497 26.3489C58.9035 25.9489 59.4648 25.7062 60.0976 25.7062C61.2463 25.7062 61.8524 26.493 61.8524 27.5483C61.8524 28.3484 61.5753 29.1351 61.0847 29.6268C60.6845 30.0337 60.1297 30.2693 59.4781 30.2693H59.4717Z" fill="white"/>
<path d="M63.5443 25.7783H64.4736L63.8022 29.3713H65.474L65.3189 30.1974H62.7183L63.5443 25.7783Z" fill="white"/>
<path d="M68.314 29.4827C69.0625 29.4827 69.5718 28.4077 69.5718 27.5749C69.5718 27.0238 69.3786 26.493 68.6944 26.493C67.9133 26.493 67.404 27.5553 67.404 28.3945C67.404 29.0168 67.6812 29.4827 68.3071 29.4827H68.314ZM68.1846 30.2693C67.0557 30.2693 66.4229 29.4566 66.4229 28.4273C66.4229 27.6337 66.7133 26.8538 67.2103 26.3489C67.6169 25.9489 68.1781 25.7062 68.8105 25.7062C69.9591 25.7062 70.5658 26.493 70.5658 27.5483C70.5658 28.3484 70.2882 29.1351 69.7976 29.6268C69.3979 30.0337 68.8426 30.2693 68.1915 30.2693H68.1846Z" fill="white"/>
<path d="M75.0191 29.9939C74.6901 30.1056 74.1614 30.2435 73.6126 30.2435C73.0187 30.2435 72.5217 30.086 72.167 29.7582C71.8182 29.4498 71.6187 28.958 71.6187 28.3945C71.6187 27.5685 71.9477 26.8538 72.5025 26.3748C72.9931 25.9623 73.6704 25.7327 74.4257 25.7327C74.987 25.7327 75.4064 25.844 75.5744 25.9293L75.2967 26.7293C75.1031 26.6371 74.7612 26.5456 74.3739 26.5456C73.9416 26.5456 73.5612 26.6699 73.2707 26.8995C72.8898 27.2012 72.6378 27.7259 72.6378 28.3286C72.6378 29.07 73.0706 29.4433 73.7544 29.4433C73.9742 29.4433 74.1224 29.4106 74.2321 29.3645L74.4065 28.4337H73.7292L73.8769 27.6798H75.4583L75.0191 29.9939Z" fill="white"/>
<path d="M78.1567 25.7783L77.3311 30.1974H76.4019L77.2279 25.7783H78.1567Z" fill="white"/>
<path d="M81.6613 28.3155H80.119L79.9189 29.3909H81.6544L81.4998 30.1974H78.8345L79.6605 25.7783H82.2354L82.0808 26.5846H80.4416L80.2607 27.5224H81.816L81.6613 28.3155Z" fill="white"/>
<path d="M83.0109 29.1749C83.2693 29.3317 83.6305 29.4566 84.037 29.4566C84.3918 29.4566 84.7213 29.2861 84.7213 28.9449C84.7213 28.6896 84.534 28.5322 84.1339 28.3155C83.6754 28.0665 83.2367 27.7126 83.2367 27.142C83.2367 26.2505 83.9985 25.7062 84.947 25.7062C85.4692 25.7062 85.779 25.8244 85.9662 25.923L85.6757 26.7093C85.534 26.6307 85.2311 26.5126 84.869 26.5195C84.4367 26.5195 84.2109 26.7358 84.2109 26.9783C84.2109 27.2406 84.4752 27.3979 84.8438 27.6077C85.3729 27.8894 85.7019 28.2504 85.7019 28.7812C85.7019 29.7645 84.9016 30.2693 83.9397 30.2693C83.34 30.2629 82.9013 30.1056 82.7012 29.9547L83.0109 29.1749Z" fill="white"/>
</svg>
