<svg viewBox="0 0 119 27" fill="none" xmlns="http://www.w3.org/2000/svg">
<path fill-rule="evenodd" clip-rule="evenodd" d="M63.5383 22.8647H62.8202C62.3822 22.8647 62.0239 22.5064 62.0239 22.0683V13.3297C62.0239 13.3138 62.0243 13.2983 62.0254 13.2828V11.8859C62.0118 11.6565 62.0961 11.4229 62.276 11.2547L64.8808 8.82488C64.9077 8.79729 64.9368 8.77197 64.9674 8.74854C65.1352 8.61663 65.3442 8.56258 65.546 8.5845H69.1763C69.4061 8.55275 69.6479 8.62003 69.8297 8.78973L72.4694 11.2521C72.6496 11.4203 72.7339 11.6542 72.7199 11.884V15.6636V15.6689V15.6825L72.7196 15.6855C72.715 15.8926 72.6304 16.0978 72.4678 16.2498L69.8282 18.7121C69.6615 18.8678 69.4438 18.9374 69.2314 18.923H65.5472C65.3434 18.9453 65.1318 18.8898 64.9628 18.7545C64.9349 18.7325 64.9084 18.7087 64.8835 18.6834L64.3343 18.1713V22.0683C64.3343 22.5064 63.9764 22.8647 63.5383 22.8647ZM66.0506 16.6126H68.6917L70.4095 15.0101V12.4903L68.6993 10.8949H66.0491L64.3362 12.4933V15.0131L66.0506 16.6126V16.6126Z" fill="#FEFEFE"/>
<path fill-rule="evenodd" clip-rule="evenodd" d="M43.4709 13.3769V14.0951C43.4709 14.5327 43.83 14.8914 44.2673 14.8914H48.0725C48.5094 14.8914 48.8689 14.532 48.8689 14.0951V13.7163V13.3769V11.5696C48.8689 11.5575 48.8685 11.5458 48.8681 11.534C48.8775 11.3088 48.7933 11.0805 48.6168 10.9169L46.4817 8.93373C46.3506 8.73682 46.134 8.60038 45.8857 8.57959C45.8226 8.57128 45.7583 8.57014 45.6948 8.57657H42.1095C41.9058 8.55465 41.6942 8.6102 41.5252 8.74513C41.4969 8.76706 41.4704 8.79087 41.4455 8.81619L38.8399 11.2472C38.6774 11.3987 38.5927 11.604 38.5878 11.8115V11.8145V11.8281V11.8334V15.6137C38.5738 15.8431 38.6581 16.0767 38.8384 16.2449L41.4436 18.6751C41.4693 18.7015 41.4973 18.7265 41.5267 18.7492C41.6953 18.8826 41.9055 18.9374 42.108 18.9151H45.8173C46.2553 18.9151 46.6136 18.556 46.6136 18.1191V17.401C46.6136 16.9641 46.2538 16.6047 45.8173 16.6047H42.6115L40.8982 15.0067V12.4869L42.613 10.8874H45.1899L46.558 12.158V12.5806H44.2673C43.8296 12.5806 43.4709 12.9397 43.4709 13.3769V13.3769Z" fill="#FEFEFE"/>
<path fill-rule="evenodd" clip-rule="evenodd" d="M55.1897 13.3864V14.1045C55.1897 14.5426 55.5492 14.9009 55.9861 14.9009H59.7917C60.2282 14.9009 60.5877 14.5414 60.5877 14.1045V13.7262V13.3864V11.579C60.5877 11.5673 60.5873 11.5552 60.5869 11.5435C60.5967 11.3182 60.5121 11.0903 60.3356 10.9263L58.2009 8.94356C58.0694 8.74627 57.8528 8.61021 57.6045 8.58904C57.5414 8.58072 57.4771 8.57959 57.414 8.5864H53.8283C53.6246 8.5641 53.413 8.61965 53.244 8.75496C53.2161 8.77688 53.1892 8.80032 53.1647 8.82602L50.5587 11.2566C50.3962 11.4086 50.3115 11.6138 50.307 11.8209V11.8239L50.3655 11.836L50.3066 11.8428V15.6235C50.2926 15.8525 50.3773 16.0865 50.5572 16.2543L53.1624 18.6845C53.1885 18.711 53.2161 18.7359 53.2455 18.7586C53.4141 18.892 53.6243 18.9468 53.8268 18.9249H57.5364C57.9745 18.9249 58.3324 18.5655 58.3324 18.1286V17.4105C58.3324 16.9735 57.973 16.6141 57.5364 16.6141H54.3303L52.617 15.0161V12.4963L54.3318 10.8968H56.9087L58.2772 12.1679V12.5904H55.9861C55.5484 12.5904 55.1897 12.9487 55.1897 13.3864V13.3864Z" fill="#FEFEFE"/>
<path fill-rule="evenodd" clip-rule="evenodd" d="M87.1131 8.59017H90.7974C91.0011 8.56787 91.2128 8.62343 91.3817 8.75874C91.4097 8.78066 91.4365 8.80447 91.4615 8.82979L94.0671 11.2604C94.2296 11.4123 94.3143 11.6176 94.3188 11.8247L94.3192 11.8281V11.8402V11.8466V15.6273C94.3332 15.8563 94.2489 16.0903 94.0686 16.2581L91.4626 18.6891C91.438 18.7144 91.4112 18.7382 91.3832 18.7601C91.2143 18.8954 91.0026 18.951 90.7989 18.9287H87.1683C86.9385 18.9604 86.6966 18.8932 86.5148 18.7235L83.8752 16.2611C83.6953 16.0929 83.611 15.8593 83.6246 15.6299V11.8496V11.8428L83.625 11.8307V11.8277C83.6295 11.6206 83.7142 11.4154 83.8767 11.2634L86.5164 8.80107C86.6834 8.64535 86.9007 8.57581 87.1131 8.59017V8.59017ZM90.294 10.9006H87.6528L85.9351 12.5031V15.0229L87.6453 16.6183H90.2955L92.0088 15.0199V12.5001L90.294 10.9006V10.9006Z" fill="#FEFEFE"/>
<path fill-rule="evenodd" clip-rule="evenodd" d="M104.94 4.63452H105.659C106.096 4.63452 106.455 4.99244 106.455 5.43049V14.1691C106.455 14.185 106.454 14.2009 106.453 14.2164V15.6133C106.467 15.8423 106.383 16.0763 106.202 16.2441L103.598 18.6743C103.57 18.7027 103.54 18.7291 103.508 18.7529C103.341 18.883 103.133 18.9366 102.933 18.9147H99.3017C99.0723 18.9465 98.8304 18.8788 98.649 18.7095L96.009 16.2471C95.8291 16.0789 95.7448 15.8454 95.7584 15.6159V11.8357V11.8289L95.7588 11.8168V11.8137C95.7633 11.6062 95.848 11.401 96.0105 11.2494L98.6501 8.78708C98.8172 8.63137 99.0345 8.56183 99.2469 8.57619H102.932C103.132 8.55427 103.339 8.60756 103.507 8.73757C103.538 8.76176 103.568 8.78784 103.596 8.81619L104.144 9.32756V5.43049C104.144 4.99244 104.502 4.63452 104.94 4.63452V4.63452ZM102.428 10.8866H99.787L98.0692 12.4891V15.0089L99.7791 16.6039H102.429L104.143 15.0059V12.4861L102.428 10.8866V10.8866Z" fill="#FEFEFE"/>
<path fill-rule="evenodd" clip-rule="evenodd" d="M78.1848 10.9066H81.3906C81.8275 10.9066 82.1869 10.5472 82.1869 10.1103V9.39219C82.1869 8.95528 81.8286 8.59584 81.3906 8.59584H77.6813C77.4787 8.57392 77.2686 8.62873 77.1 8.76214C77.0706 8.78482 77.043 8.80939 77.0169 8.83584L74.4117 11.2665C74.2488 11.418 74.1645 11.6232 74.1596 11.8304V11.8338L74.1592 11.8459V11.8523V15.6329C74.1456 15.8624 74.2299 16.0959 74.4101 16.2641L77.0154 18.6947C77.0411 18.7208 77.0683 18.745 77.097 18.7673C77.266 18.9015 77.4765 18.9567 77.6798 18.9344H81.389C81.8271 18.9344 82.1854 18.5753 82.1854 18.1384V17.4203C82.1854 16.983 81.826 16.6239 81.389 16.6239H78.1829L76.47 15.026V12.5061L78.1848 10.9066V10.9066Z" fill="#FEFEFE"/>
<path fill-rule="evenodd" clip-rule="evenodd" d="M112.776 13.3962V14.1143C112.776 14.5524 113.135 14.9107 113.572 14.9107H117.377C117.814 14.9107 118.174 14.5512 118.174 14.1143V13.7356V13.3962V11.5888C118.174 11.5771 118.173 11.5654 118.173 11.5537C118.183 11.3284 118.098 11.1002 117.922 10.9361L115.787 8.95301C115.655 8.75609 115.439 8.62003 115.192 8.59887C115.128 8.59017 115.063 8.58942 115 8.59584H111.414C111.212 8.57392 111.002 8.62873 110.833 8.76214C110.804 8.78482 110.776 8.80939 110.75 8.83584L108.145 11.2665C107.982 11.418 107.898 11.6232 107.893 11.8304V11.8338V11.8459V11.8523V15.6329C107.879 15.8624 107.963 16.0959 108.143 16.2641L110.749 18.6947C110.774 18.7208 110.801 18.745 110.83 18.7673C110.999 18.9015 111.21 18.9567 111.413 18.9344H115.122C115.56 18.9344 115.918 18.5753 115.918 18.1384V17.4203C115.918 16.983 115.559 16.6239 115.122 16.6239H111.916L110.203 15.026V12.5061L111.918 10.9066H114.495L115.863 12.1773V12.5999H113.572C113.134 12.5999 112.776 12.9582 112.776 13.3962V13.3962Z" fill="#FEFEFE"/>
<path fill-rule="evenodd" clip-rule="evenodd" d="M29.362 8.58413H30.0801C30.5181 8.58413 30.8764 8.94243 30.8764 9.38048V12.4948L30.8791 12.5171C30.8821 12.5368 30.8881 12.5594 30.9032 12.5749C30.9184 12.5904 30.9429 12.5984 30.966 12.6021C30.977 12.604 30.9879 12.6052 30.9959 12.6063H31.5076L34.5603 8.90009C34.6454 8.79805 34.7954 8.62381 35.0343 8.59698C35.2728 8.57052 35.7248 8.57581 36.0854 8.57468C36.4928 8.57354 37 8.5229 37.1198 8.90614C37.1935 9.14199 37.1293 9.416 36.9603 9.62085L33.7334 13.5383V14.0365C33.7821 14.0743 33.8305 14.1158 33.8789 14.1612C33.9344 14.2126 33.99 14.2689 34.044 14.326L36.9603 17.8663C37.1293 18.0711 37.1935 18.3451 37.1198 18.581C37 18.9642 36.4932 18.9136 36.0854 18.9124C35.7248 18.9113 35.2728 18.9166 35.0343 18.8901C34.7954 18.8633 34.6454 18.6891 34.5603 18.587L31.5511 14.9337H30.8764V18.1191C30.8764 18.5572 30.5181 18.9151 30.0801 18.9151H29.362C28.9239 18.9151 28.5656 18.5572 28.5656 18.1191V9.38048C28.5656 8.94243 28.9239 8.58413 29.362 8.58413V8.58413Z" fill="#FEFEFE"/>
<path fill-rule="evenodd" clip-rule="evenodd" d="M19.9041 9.75011C19.6456 10.2048 19.8054 10.7883 20.2601 11.0469L22.5887 12.3727C23.043 12.6312 23.6265 12.471 23.8854 12.0167C24.1439 11.562 23.9837 10.9788 23.5294 10.7199L21.2008 9.39446C20.7461 9.13556 20.163 9.29581 19.9041 9.75011ZM18.0302 8.64951C18.2641 8.18199 18.1307 7.60863 17.6745 7.35275L12.8995 4.67572C12.7547 4.59483 12.5948 4.55401 12.4365 4.55061H12.4353H12.4164H12.4055L12.393 4.55099L12.379 4.55137L12.3715 4.55175L12.3564 4.5525L12.3473 4.55288L12.3325 4.55401L12.3246 4.55477L12.3091 4.55628L12.3019 4.55742L12.2823 4.55968L12.2804 4.56006L12.2611 4.56271L12.2562 4.56384L12.2384 4.56687L12.2335 4.56762L12.2169 4.57102L12.2097 4.57253L12.1931 4.57632L12.1882 4.57745L12.1689 4.58236L12.167 4.58274L12.1466 4.58841L12.1447 4.58879C12.0725 4.60995 12.0018 4.63905 11.9346 4.6776L1.23131 10.7974C0.777392 11.0567 0.641708 11.6263 0.875282 12.0938C1.10924 12.5617 1.71812 12.7095 2.17204 12.4498L12.1288 6.7571C12.1387 6.75445 12.1541 6.74879 12.178 6.74009C12.2313 6.72044 12.3284 6.6868 12.4274 6.68642C12.5264 6.68642 12.6277 6.71968 12.678 6.73745L12.7063 6.74765L16.7338 9.00554C17.1896 9.26104 17.7966 9.11742 18.0302 8.64951V8.64951ZM18.0302 4.5559C18.2641 4.088 18.1307 3.51502 17.6745 3.25915L12.8995 0.582108C12.7623 0.505384 12.6115 0.464564 12.4614 0.45776H12.4539L12.4403 0.457008H12.4278H12.4164H12.4055H12.393L12.3794 0.45776H12.3718C12.3571 0.458516 12.3424 0.459653 12.3276 0.460787L12.3269 0.461165C12.3121 0.462299 12.2978 0.464189 12.283 0.466079L12.28 0.466457L12.2592 0.469479L12.2577 0.469857C12.2278 0.474771 12.198 0.480818 12.1681 0.488755L12.1674 0.489133C12.0872 0.509921 12.009 0.541291 11.9349 0.584L1.23131 6.70343C0.777392 6.96308 0.641708 7.53266 0.875282 8.00019C1.10924 8.46809 1.71812 8.61587 2.17204 8.35622L12.1288 2.6635C12.1387 2.66085 12.1538 2.65518 12.178 2.64611C12.2313 2.62683 12.3284 2.5932 12.4274 2.59282C12.5264 2.59282 12.6277 2.62608 12.678 2.64346L12.7063 2.65367L16.7338 4.91194C17.1896 5.16743 17.7962 5.02381 18.0302 4.5559V4.5559ZM6.81405 22.8696V22.87C6.58048 23.3375 6.7139 23.9109 7.17009 24.1664L11.9451 26.8434C12.0895 26.9243 12.2486 26.9651 12.4066 26.9685H12.413L12.4278 26.9689L12.4429 26.9685H12.4493L12.4667 26.9681L12.4728 26.9677L12.492 26.9666H12.4951L12.517 26.9647H12.5174L12.5397 26.9625L12.5408 26.9621L12.562 26.9594H12.5642C12.5865 26.956 12.6092 26.9522 12.6315 26.9473H12.6319C12.7279 26.9269 12.8216 26.8922 12.9097 26.8419L23.6133 20.7221C24.0672 20.4624 24.2029 19.8932 23.9689 19.4253C23.7354 18.9578 23.1265 18.81 22.6726 19.0693L12.7154 24.7624C12.7056 24.7647 12.6905 24.7707 12.6667 24.7794C12.6134 24.7991 12.5162 24.8327 12.4172 24.8327C12.3178 24.8331 12.2169 24.7994 12.1666 24.782L12.1383 24.7718L8.11081 22.514C7.65462 22.2581 7.048 22.4021 6.81405 22.8696V22.8696ZM6.81405 18.776C6.58048 19.2439 6.7139 19.8169 7.17009 20.0728L11.9451 22.7498C12.0891 22.8307 12.2483 22.8715 12.4062 22.8749H12.4149H12.4278H12.4391H12.4512L12.4652 22.8745L12.4728 22.8741L12.4901 22.873L12.4958 22.8726L12.517 22.8711H12.5174L12.5374 22.8689L12.5427 22.8685L12.5582 22.8666L12.5665 22.8654L12.5854 22.8624L12.5869 22.862C12.6016 22.8598 12.6168 22.8571 12.6315 22.8537H12.6319C12.6542 22.8488 12.6765 22.8435 12.6988 22.8371H12.6992C12.7717 22.8163 12.8424 22.7868 12.9097 22.7483L23.6133 16.6285C24.0672 16.3688 24.2029 15.7992 23.9689 15.3317C23.7354 14.8642 23.1265 14.7164 22.6726 14.9757L12.7154 20.6688C12.7056 20.6711 12.6905 20.6771 12.6667 20.6858C12.6134 20.7054 12.5162 20.7387 12.4172 20.7391C12.3178 20.7391 12.2169 20.7058 12.1666 20.6884L12.1383 20.6782L8.11081 18.4203C7.65462 18.1645 7.048 18.3085 6.81405 18.776V18.776ZM11.4379 10.1844C11.6719 10.6519 11.5354 11.2207 11.0819 11.4811L7.66218 13.4435C7.65538 13.4518 7.64328 13.4627 7.62136 13.4816C7.57109 13.5251 7.47018 13.6128 7.47056 13.705C7.47093 13.7976 7.57261 13.8951 7.63799 13.9522C7.66861 13.979 7.6909 13.9968 7.70224 14.0089L11.0819 15.9482C11.5354 16.2086 11.6719 16.777 11.4379 17.2449C11.204 17.7124 10.5947 17.861 10.1412 17.6009L4.82224 14.5486C4.5127 14.371 4.35094 14.0497 4.35396 13.7145C4.35094 13.3796 4.5127 13.0583 4.82224 12.8803L10.1412 9.82835C10.5947 9.56831 11.204 9.71647 11.4379 10.1844V10.1844ZM13.4135 10.1844C13.1795 10.6519 13.3156 11.2207 13.7691 11.4808L17.1892 13.4435C17.1957 13.4518 17.2081 13.4627 17.2297 13.4816C17.2803 13.5251 17.3812 13.6128 17.3809 13.705C17.3801 13.7976 17.2784 13.8951 17.2134 13.9526C17.1828 13.979 17.1601 13.9968 17.1492 14.0089L13.7691 15.9482C13.3156 16.2086 13.1795 16.777 13.4135 17.2449C13.6474 17.7124 14.2563 17.861 14.7099 17.6009L20.0288 14.5486C20.3387 14.371 20.5005 14.0497 20.4975 13.7145C20.5005 13.3796 20.3387 13.0583 20.0288 12.8803L14.7099 9.82835C14.2563 9.56831 13.6474 9.71647 13.4135 10.1844V10.1844ZM0.931597 19.459C0.673077 19.9133 0.833329 20.4968 1.28763 20.7557L3.61619 22.0812C4.07049 22.3401 4.65405 22.1798 4.91295 21.7252C5.17147 21.2709 5.01122 20.6873 4.55692 20.4288L2.22835 19.1029C1.77405 18.8444 1.19049 19.0047 0.931597 19.459V19.459ZM0.925172 15.5506C0.666653 16.0048 0.826526 16.5884 1.2812 16.8473L3.60977 18.1728C4.06407 18.4313 4.64763 18.2714 4.90653 17.8168C5.16505 17.3625 5.00479 16.7789 4.55049 16.5204L2.22193 15.1945C1.76763 14.936 1.18407 15.0959 0.925172 15.5506V15.5506ZM19.9434 5.76497C19.6849 6.21965 19.8451 6.80321 20.2994 7.06173L22.628 8.38721C23.0827 8.64611 23.6658 8.48586 23.9247 8.03156C24.1833 7.57688 24.0234 6.9937 23.5687 6.7348L21.2401 5.40932C20.7858 5.15042 20.2023 5.31068 19.9434 5.76497Z" fill="url(#paint0_linear_1_3)"/>
<defs>
<linearGradient id="paint0_linear_1_3" x1="4.91295" y1="21.7248" x2="24.2441" y2="-0.400567" gradientUnits="userSpaceOnUse">
<stop stop-color="#17F9FD"/>
<stop offset="0.439216" stop-color="#8791FB"/>
<stop offset="1" stop-color="#F828F8"/>
</linearGradient>
</defs>
</svg>
