<svg width="182" height="71" viewBox="0 0 182 71" fill="none" xmlns="http://www.w3.org/2000/svg">
<path fill-rule="evenodd" clip-rule="evenodd" d="M10 0C4.47715 0 0 4.47715 0 10V61C0 66.5229 4.47715 71 10 71H61C66.5229 71 71 66.5229 71 61V10C71 4.47715 66.5229 0 61 0H10ZM55.874 32.5043H59.1667C59.0317 31.4784 58.7441 30.5665 58.3039 29.7687C57.8696 28.9648 57.3149 28.2869 56.6399 27.7349C55.965 27.177 55.1961 26.7541 54.3333 26.4661C53.4705 26.1782 52.5372 26.0342 51.5336 26.0342C49.9606 26.0342 48.5519 26.4091 47.3076 27.159C46.0633 27.9089 45.0802 28.9918 44.3582 30.4076C43.6363 31.8174 43.2753 33.5151 43.2753 35.5008C43.2753 37.4806 43.6334 39.1783 44.3494 40.5941C45.0655 42.0099 46.0457 43.0928 47.29 43.8427C48.5343 44.5926 49.9488 44.9675 51.5336 44.9675C52.6077 44.9675 53.5849 44.8055 54.4653 44.4816C55.3457 44.1516 56.1146 43.6957 56.772 43.1138C57.4294 42.5259 57.9606 41.848 58.3655 41.0801C58.7764 40.3122 59.0434 39.4903 59.1667 38.6144L55.874 38.5964C55.7742 39.1363 55.5923 39.6163 55.3281 40.0362C55.0699 40.4562 54.75 40.8101 54.3685 41.0981C53.9928 41.386 53.5673 41.605 53.0919 41.755C52.6223 41.8989 52.1176 41.9709 51.5776 41.9709C50.6033 41.9709 49.7375 41.728 48.9804 41.242C48.2291 40.7501 47.6363 40.0242 47.202 39.0643C46.7735 38.0985 46.5593 36.9106 46.5593 35.5008C46.5593 34.115 46.7735 32.9422 47.202 31.9823C47.6304 31.0165 48.2232 30.2846 48.9804 29.7867C49.7375 29.2827 50.6062 29.0308 51.5864 29.0308C52.1381 29.0308 52.6517 29.1087 53.1271 29.2647C53.6084 29.4147 54.0369 29.6397 54.4125 29.9396C54.7881 30.2396 55.1022 30.6055 55.3545 31.0375C55.6069 31.4634 55.7801 31.9523 55.874 32.5043ZM11.8334 44.7155V26.2861H18.7358C20.0388 26.2861 21.1217 26.4961 21.9845 26.9161C22.8532 27.33 23.5017 27.8969 23.9302 28.6168C24.3645 29.3367 24.5817 30.1526 24.5817 31.0645C24.5817 31.8144 24.4408 32.4563 24.1591 32.9902C23.8774 33.5181 23.4988 33.9471 23.0234 34.277C22.548 34.607 22.0168 34.8439 21.4298 34.9879V35.1679C22.0696 35.2039 22.6829 35.4049 23.2699 35.7708C23.8627 36.1308 24.3469 36.6407 24.7226 37.3006C25.0982 37.9605 25.286 38.7584 25.286 39.6943C25.286 40.6481 25.0601 41.506 24.6081 42.2679C24.1562 43.0238 23.4753 43.6207 22.5656 44.0586C21.6558 44.4966 20.5113 44.7155 19.132 44.7155H11.8334ZM15.0997 41.9259H18.6125C19.7981 41.9259 20.6521 41.695 21.1745 41.233C21.7028 40.7651 21.9669 40.1652 21.9669 39.4333C21.9669 38.8874 21.8348 38.3954 21.5707 37.9575C21.3066 37.5136 20.9309 37.1656 20.4438 36.9137C19.9566 36.6557 19.3755 36.5267 18.7006 36.5267H15.0997V41.9259ZM15.0997 34.124H18.3308C18.8943 34.124 19.402 34.0191 19.8539 33.8091C20.3058 33.5931 20.6609 33.2902 20.9192 32.9002C21.1833 32.5043 21.3154 32.0363 21.3154 31.4964C21.3154 30.7825 21.0689 30.1946 20.5758 29.7327C20.0887 29.2707 19.3638 29.0398 18.4012 29.0398H15.0997V34.124ZM29.6992 44.7155H26.2128L32.5606 26.2861H36.5928L42.9494 44.7155H39.463L37.9691 40.1712H31.1904L29.6992 44.7155ZM34.6471 30.0656L37.0876 37.4896H32.0703L34.5063 30.0656H34.6471Z" fill="white"/>
<path d="M82.0502 16.9708V0.782536H88.2406C89.4092 0.782536 90.3804 0.966972 91.1542 1.33584C91.9332 1.69945 92.5149 2.19742 92.8992 2.82978C93.2887 3.46213 93.4835 4.1788 93.4835 4.97978C93.4835 5.63848 93.3571 6.20232 93.1045 6.67132C92.8518 7.13504 92.5123 7.51182 92.0859 7.80165C91.6595 8.09148 91.1831 8.29963 90.6567 8.4261V8.58418C91.2305 8.6158 91.7806 8.79233 92.307 9.11378C92.8386 9.42996 93.2729 9.87787 93.6098 10.4575C93.9467 11.0372 94.1152 11.738 94.1152 12.5601C94.1152 13.398 93.9125 14.1515 93.5072 14.8208C93.1018 15.4847 92.4912 16.0091 91.6753 16.3937C90.8594 16.7784 89.8329 16.9708 88.5959 16.9708H82.0502ZM84.9796 14.5204H88.13C89.1934 14.5204 89.9593 14.3175 90.4277 13.9118C90.9015 13.5007 91.1384 12.9738 91.1384 12.3309C91.1384 11.8513 91.0199 11.4192 90.7831 11.0345C90.5462 10.6446 90.2093 10.339 89.7724 10.1176C89.3355 9.89105 88.8143 9.77775 88.209 9.77775H84.9796V14.5204ZM84.9796 7.66727H87.8774C88.3827 7.66727 88.838 7.57506 89.2434 7.39062C89.6487 7.20091 89.9672 6.9348 90.1988 6.59227C90.4356 6.24448 90.5541 5.83345 90.5541 5.35919C90.5541 4.7321 90.333 4.21568 89.8908 3.80992C89.4539 3.40416 88.8038 3.20128 87.9405 3.20128H84.9796V7.66727Z" fill="white"/>
<path d="M95.8702 16.9708V4.82959H98.6417V6.85312H98.768C98.9891 6.15226 99.3681 5.61213 99.905 5.23272C100.447 4.84804 101.066 4.65569 101.761 4.65569C101.918 4.65569 102.095 4.6636 102.29 4.67941C102.49 4.68995 102.655 4.70839 102.787 4.73474V7.36691C102.666 7.32475 102.474 7.28786 102.211 7.25624C101.953 7.21936 101.703 7.20091 101.461 7.20091C100.939 7.20091 100.471 7.31421 100.055 7.5408C99.6444 7.76213 99.3207 8.0704 99.0838 8.46562C98.8469 8.86084 98.7285 9.31666 98.7285 9.83308V16.9708H95.8702Z" fill="white"/>
<path d="M104.019 16.9708V4.82959H106.877V16.9708H104.019ZM105.456 3.10643C105.003 3.10643 104.614 2.95625 104.287 2.65588C103.961 2.35024 103.798 1.98401 103.798 1.55717C103.798 1.12506 103.961 0.758823 104.287 0.458455C104.614 0.152818 105.003 0 105.456 0C105.914 0 106.304 0.152818 106.625 0.458455C106.951 0.758823 107.114 1.12506 107.114 1.55717C107.114 1.98401 106.951 2.35024 106.625 2.65588C106.304 2.95625 105.914 3.10643 105.456 3.10643Z" fill="white"/>
<path d="M115.206 4.82959V7.04282H108.234V4.82959H115.206ZM109.955 1.92077H112.813V13.3189C112.813 13.7036 112.871 13.9987 112.987 14.2042C113.108 14.4045 113.266 14.5415 113.461 14.6152C113.655 14.689 113.871 14.7259 114.108 14.7259C114.287 14.7259 114.45 14.7127 114.598 14.6864C114.75 14.66 114.866 14.6363 114.945 14.6152L115.427 16.8522C115.274 16.9049 115.056 16.9629 114.771 17.0261C114.492 17.0893 114.15 17.1262 113.745 17.1368C113.029 17.1578 112.384 17.0498 111.81 16.8127C111.237 16.5703 110.781 16.1961 110.444 15.6902C110.113 15.1844 109.95 14.552 109.955 13.7932V1.92077Z" fill="white"/>
<path d="M116.929 16.9708V4.82959H119.787V16.9708H116.929ZM118.366 3.10643C117.913 3.10643 117.524 2.95625 117.198 2.65588C116.871 2.35024 116.708 1.98401 116.708 1.55717C116.708 1.12506 116.871 0.758823 117.198 0.458455C117.524 0.152818 117.913 0 118.366 0C118.824 0 119.214 0.152818 119.535 0.458455C119.861 0.758823 120.024 1.12506 120.024 1.55717C120.024 1.98401 119.861 2.35024 119.535 2.65588C119.214 2.95625 118.824 3.10643 118.366 3.10643Z" fill="white"/>
<path d="M131.645 8.03878L129.04 8.32334C128.966 8.05986 128.837 7.81219 128.653 7.58032C128.474 7.34846 128.232 7.16139 127.926 7.01911C127.621 6.87683 127.247 6.80569 126.805 6.80569C126.21 6.80569 125.71 6.9348 125.305 7.19301C124.905 7.45122 124.707 7.78584 124.713 8.19687C124.707 8.54993 124.836 8.83712 125.1 9.05845C125.368 9.27977 125.81 9.46157 126.426 9.60385L128.495 10.0465C129.642 10.2942 130.495 10.6868 131.053 11.2243C131.616 11.7618 131.901 12.4652 131.906 13.3347C131.901 14.0988 131.677 14.7733 131.235 15.3583C130.798 15.9379 130.19 16.3911 129.411 16.7178C128.632 17.0445 127.737 17.2079 126.726 17.2079C125.242 17.2079 124.047 16.897 123.141 16.2752C122.236 15.6481 121.696 14.776 121.523 13.6588L124.31 13.3901C124.436 13.9381 124.705 14.3518 125.115 14.6311C125.526 14.9103 126.06 15.05 126.718 15.05C127.397 15.05 127.942 14.9103 128.353 14.6311C128.769 14.3518 128.977 14.0066 128.977 13.5956C128.977 13.2478 128.842 12.9606 128.574 12.734C128.311 12.5074 127.9 12.3335 127.342 12.2123L125.273 11.7776C124.11 11.5352 123.249 11.1268 122.691 10.5524C122.133 9.97272 121.857 9.24025 121.862 8.35496C121.857 7.60667 122.06 6.95851 122.47 6.41047C122.886 5.85716 123.463 5.43033 124.199 5.12996C124.942 4.82432 125.797 4.6715 126.766 4.6715C128.187 4.6715 129.306 4.97451 130.121 5.58051C130.943 6.18651 131.451 7.00594 131.645 8.03878Z" fill="white"/>
<path d="M136.454 9.85679V16.9708H133.596V0.782536H136.391V6.89264H136.533C136.817 6.20759 137.257 5.66746 137.852 5.27224C138.452 4.87175 139.215 4.6715 140.142 4.6715C140.984 4.6715 141.718 4.84804 142.344 5.2011C142.971 5.55416 143.455 6.07058 143.797 6.75036C144.145 7.43014 144.318 8.2601 144.318 9.24025V16.9708H141.46V9.6829C141.46 8.86611 141.25 8.23112 140.828 7.77793C140.413 7.31948 139.828 7.09025 139.076 7.09025C138.57 7.09025 138.118 7.20091 137.717 7.42224C137.323 7.63829 137.012 7.95183 136.786 8.36286C136.565 8.77389 136.454 9.27187 136.454 9.85679Z" fill="white"/>
<path d="M84.1268 43.8668H81L86.693 27.6786H90.3093L96.0102 43.8668H92.8834L88.5643 30.9984H88.438L84.1268 43.8668ZM84.2294 37.5196H92.757V39.8751H84.2294V37.5196Z" fill="white"/>
<path d="M102.268 44.1039C101.057 44.1039 100.018 43.8378 99.149 43.3056C98.2857 42.7734 97.6198 42.0383 97.1513 41.1003C96.6881 40.157 96.4565 39.0715 96.4565 37.8437C96.4565 36.6106 96.6933 35.5224 97.1671 34.5791C97.6408 33.6306 98.3094 32.8929 99.1727 32.3659C100.041 31.8337 101.068 31.5676 102.252 31.5676C103.236 31.5676 104.108 31.7494 104.866 32.113C105.629 32.4713 106.237 32.9798 106.69 33.6385C107.142 34.2919 107.4 35.056 107.463 35.9308H104.731C104.621 35.3459 104.358 34.8584 103.942 34.4685C103.531 34.0733 102.981 33.8756 102.292 33.8756C101.707 33.8756 101.194 34.0337 100.752 34.3499C100.31 34.6608 99.9649 35.1087 99.7175 35.6937C99.4753 36.2786 99.3543 36.9794 99.3543 37.7962C99.3543 38.6236 99.4753 39.335 99.7175 39.9304C99.9596 40.5206 100.299 40.9764 100.736 41.2979C101.178 41.6141 101.697 41.7721 102.292 41.7721C102.713 41.7721 103.089 41.6931 103.421 41.535C103.758 41.3717 104.039 41.1372 104.266 40.8315C104.492 40.5259 104.647 40.1544 104.731 39.717H107.463C107.395 40.5759 107.142 41.3374 106.705 42.0014C106.268 42.6601 105.674 43.1765 104.921 43.5506C104.168 43.9195 103.284 44.1039 102.268 44.1039Z" fill="white"/>
<path d="M112.633 44.1119C111.865 44.1119 111.173 43.9748 110.557 43.7008C109.946 43.4215 109.462 43.0105 109.104 42.4677C108.751 41.925 108.575 41.2557 108.575 40.46C108.575 39.775 108.701 39.2085 108.954 38.7606C109.207 38.3127 109.551 37.9543 109.988 37.6856C110.425 37.4168 110.917 37.2139 111.465 37.0769C112.018 36.9347 112.589 36.8319 113.178 36.7687C113.889 36.6949 114.465 36.629 114.907 36.571C115.35 36.5078 115.671 36.413 115.871 36.2865C116.076 36.1547 116.179 35.9519 116.179 35.6778V35.6304C116.179 35.035 116.002 34.5739 115.65 34.2472C115.297 33.9204 114.789 33.7571 114.126 33.7571C113.426 33.7571 112.87 33.9099 112.46 34.2155C112.054 34.5212 111.781 34.8821 111.639 35.2984L108.97 34.919C109.18 34.1813 109.528 33.5647 110.012 33.0694C110.496 32.5688 111.088 32.1946 111.789 31.947C112.489 31.694 113.262 31.5676 114.11 31.5676C114.694 31.5676 115.276 31.6361 115.855 31.7731C116.434 31.9101 116.963 32.1367 117.442 32.4529C117.921 32.7638 118.305 33.188 118.595 33.7255C118.89 34.263 119.037 34.9348 119.037 35.7411V43.8668H116.289V42.199H116.194C116.021 42.5362 115.776 42.8524 115.46 43.1475C115.15 43.4373 114.757 43.6718 114.284 43.851C113.815 44.0249 113.265 44.1119 112.633 44.1119ZM113.376 42.0093C113.949 42.0093 114.447 41.896 114.868 41.6694C115.289 41.4375 115.613 41.1319 115.839 40.7525C116.071 40.3731 116.187 39.9594 116.187 39.5115V38.0808C116.097 38.1546 115.944 38.2231 115.729 38.2863C115.518 38.3495 115.281 38.4049 115.018 38.4523C114.755 38.4997 114.494 38.5419 114.236 38.5788C113.978 38.6157 113.755 38.6473 113.565 38.6736C113.139 38.7316 112.757 38.8264 112.42 38.9582C112.083 39.0899 111.817 39.2744 111.623 39.5115C111.428 39.7433 111.331 40.0437 111.331 40.4126C111.331 40.9395 111.523 41.3374 111.907 41.6062C112.291 41.8749 112.781 42.0093 113.376 42.0093Z" fill="white"/>
<path d="M125.745 44.0802C124.792 44.0802 123.939 43.8352 123.186 43.3451C122.434 42.855 121.839 42.1437 121.402 41.2109C120.965 40.2782 120.747 39.1452 120.747 37.812C120.747 36.463 120.968 35.3248 121.41 34.3973C121.857 33.4646 122.46 32.7611 123.218 32.2869C123.976 31.8073 124.821 31.5676 125.753 31.5676C126.463 31.5676 127.048 31.6888 127.506 31.9312C127.964 32.1683 128.327 32.4555 128.595 32.7927C128.864 33.1247 129.072 33.4383 129.219 33.7334H129.337V27.6786H132.204V43.8668H129.393V41.9539H129.219C129.072 42.249 128.858 42.5626 128.579 42.8946C128.3 43.2213 127.932 43.5006 127.474 43.7324C127.016 43.9643 126.44 44.0802 125.745 44.0802ZM126.542 41.7326C127.148 41.7326 127.663 41.5693 128.09 41.2425C128.516 40.9106 128.84 40.4495 129.061 39.8593C129.282 39.2691 129.393 38.5814 129.393 37.7962C129.393 37.0111 129.282 36.3286 129.061 35.749C128.845 35.1693 128.524 34.7188 128.098 34.3973C127.677 34.0759 127.158 33.9152 126.542 33.9152C125.905 33.9152 125.374 34.0812 124.947 34.4131C124.521 34.7451 124.2 35.2036 123.984 35.7885C123.768 36.3734 123.66 37.0427 123.66 37.7962C123.66 38.5551 123.768 39.2322 123.984 39.8277C124.205 40.4179 124.529 40.8842 124.955 41.2267C125.387 41.564 125.916 41.7326 126.542 41.7326Z" fill="white"/>
<path d="M139.952 44.1039C138.736 44.1039 137.686 43.851 136.801 43.3451C135.922 42.834 135.246 42.112 134.772 41.1793C134.298 40.2413 134.061 39.1373 134.061 37.8674C134.061 36.6185 134.298 35.5224 134.772 34.5791C135.251 33.6306 135.92 32.8929 136.778 32.3659C137.636 31.8337 138.644 31.5676 139.802 31.5676C140.549 31.5676 141.255 31.6888 141.918 31.9312C142.586 32.1683 143.176 32.5372 143.686 33.0378C144.202 33.5384 144.608 34.176 144.902 34.9506C145.197 35.72 145.345 36.6369 145.345 37.7014V38.5788H135.404V36.6501H142.605C142.599 36.1021 142.481 35.6146 142.249 35.1878C142.018 34.7557 141.694 34.4158 141.278 34.1681C140.868 33.9204 140.389 33.7966 139.841 33.7966C139.257 33.7966 138.744 33.9389 138.301 34.2234C137.859 34.5027 137.514 34.8716 137.267 35.3301C137.025 35.7832 136.901 36.2812 136.896 36.824V38.5076C136.896 39.2138 137.025 39.8198 137.283 40.3256C137.541 40.8263 137.901 41.2109 138.365 41.4797C138.828 41.7432 139.37 41.8749 139.991 41.8749C140.407 41.8749 140.783 41.8169 141.12 41.701C141.457 41.5798 141.749 41.4033 141.997 41.1714C142.244 40.9395 142.431 40.6524 142.557 40.3098L145.226 40.6102C145.058 41.3163 144.737 41.9329 144.263 42.4598C143.794 42.9815 143.194 43.3873 142.463 43.6771C141.731 43.9617 140.894 44.1039 139.952 44.1039Z" fill="white"/>
<path d="M147.096 43.8668V31.7256H149.828V33.7887H149.97C150.222 33.0931 150.641 32.5503 151.225 32.1604C151.81 31.7652 152.507 31.5676 153.318 31.5676C154.139 31.5676 154.831 31.7678 155.394 32.1683C155.963 32.5635 156.363 33.1036 156.595 33.7887H156.721C156.989 33.1142 157.442 32.5767 158.079 32.1762C158.721 31.7704 159.482 31.5676 160.361 31.5676C161.477 31.5676 162.388 31.9206 163.093 32.6268C163.798 33.3329 164.151 34.3631 164.151 35.7174V43.8668H161.285V36.16C161.285 35.4065 161.085 34.8558 160.685 34.508C160.285 34.1549 159.795 33.9784 159.216 33.9784C158.526 33.9784 157.987 34.1945 157.597 34.6266C157.213 35.0534 157.021 35.6093 157.021 36.2944V43.8668H154.218V36.0415C154.218 35.4144 154.028 34.9138 153.649 34.5396C153.276 34.1655 152.786 33.9784 152.181 33.9784C151.77 33.9784 151.396 34.0838 151.059 34.2946C150.723 34.5001 150.454 34.7926 150.254 35.172C150.054 35.5461 149.954 35.9835 149.954 36.4841V43.8668H147.096Z" fill="white"/>
<path d="M166.384 43.8668V31.7256H169.242V43.8668H166.384ZM167.821 30.0025C167.368 30.0025 166.978 29.8523 166.652 29.5519C166.326 29.2463 166.163 28.8801 166.163 28.4532C166.163 28.0211 166.326 27.6549 166.652 27.3545C166.978 27.0489 167.368 26.8961 167.821 26.8961C168.279 26.8961 168.668 27.0489 168.989 27.3545C169.316 27.6549 169.479 28.0211 169.479 28.4532C169.479 28.8801 169.316 29.2463 168.989 29.5519C168.668 29.8523 168.279 30.0025 167.821 30.0025Z" fill="white"/>
<path d="M176.804 44.1039C175.594 44.1039 174.554 43.8378 173.686 43.3056C172.822 42.7734 172.156 42.0383 171.688 41.1003C171.225 40.157 170.993 39.0715 170.993 37.8437C170.993 36.6106 171.23 35.5224 171.704 34.5791C172.177 33.6306 172.846 32.8929 173.709 32.3659C174.578 31.8337 175.604 31.5676 176.789 31.5676C177.773 31.5676 178.644 31.7494 179.402 32.113C180.166 32.4713 180.774 32.9798 181.226 33.6385C181.679 34.2919 181.937 35.056 182 35.9308H179.268C179.157 35.3459 178.894 34.8584 178.478 34.4685C178.068 34.0733 177.518 33.8756 176.828 33.8756C176.244 33.8756 175.731 34.0337 175.288 34.3499C174.846 34.6608 174.501 35.1087 174.254 35.6937C174.012 36.2786 173.891 36.9794 173.891 37.7962C173.891 38.6236 174.012 39.335 174.254 39.9304C174.496 40.5206 174.836 40.9764 175.273 41.2979C175.715 41.6141 176.233 41.7721 176.828 41.7721C177.249 41.7721 177.626 41.6931 177.957 41.535C178.294 41.3717 178.576 41.1372 178.802 40.8315C179.029 40.5259 179.184 40.1544 179.268 39.717H182C181.932 40.5759 181.679 41.3374 181.242 42.0014C180.805 42.6601 180.21 43.1765 179.458 43.5506C178.705 43.9195 177.82 44.1039 176.804 44.1039Z" fill="white"/>
<path d="M95.8917 60.0366H92.9387C92.8544 59.5518 92.6991 59.1223 92.4728 58.7482C92.2464 58.3688 91.9648 58.0473 91.6279 57.7838C91.291 57.5204 90.9068 57.3227 90.4751 57.191C90.0487 57.054 89.5881 56.9855 89.0933 56.9855C88.2143 56.9855 87.4352 57.2068 86.7561 57.6495C86.0771 58.0868 85.5454 58.7297 85.1612 59.5781C84.7769 60.4213 84.5848 61.4515 84.5848 62.6688C84.5848 63.9071 84.7769 64.9505 85.1612 65.7989C85.5507 66.642 86.0824 67.2797 86.7561 67.7118C87.4352 68.1386 88.2116 68.352 89.0854 68.352C89.5697 68.352 90.0224 68.2888 90.4435 68.1623C90.8699 68.0306 91.2516 67.8382 91.5885 67.5853C91.9306 67.3324 92.2175 67.0215 92.4491 66.6526C92.686 66.2837 92.8492 65.8621 92.9387 65.3879L95.8917 65.4037C95.7812 66.173 95.5417 66.895 95.1732 67.5695C94.81 68.244 94.3336 68.8395 93.744 69.3559C93.1545 69.867 92.4649 70.2675 91.6753 70.5574C90.8857 70.8419 90.0093 70.9842 89.046 70.9842C87.6247 70.9842 86.3561 70.6548 85.2401 69.9961C84.1242 69.3374 83.2451 68.3863 82.6029 67.1427C81.9607 65.899 81.6396 64.4077 81.6396 62.6688C81.6396 60.9245 81.9633 59.4332 82.6108 58.1949C83.2582 56.9512 84.14 56.0001 85.2559 55.3414C86.3719 54.6827 87.6352 54.3533 89.046 54.3533C89.9461 54.3533 90.7831 54.4798 91.5569 54.7327C92.3307 54.9857 93.0202 55.3572 93.6256 55.8473C94.231 56.3321 94.7284 56.9275 95.1179 57.6337C95.5127 58.3345 95.7707 59.1355 95.8917 60.0366Z" fill="white"/>
<path d="M103.15 71C101.934 71 100.884 70.7471 99.9998 70.2412C99.1207 69.73 98.4443 69.0081 97.9705 68.0754C97.4967 67.1374 97.2599 66.0334 97.2599 64.7634C97.2599 63.5145 97.4967 62.4184 97.9705 61.4752C98.4495 60.5267 99.118 59.7889 99.9761 59.262C100.834 58.7297 101.842 58.4636 103 58.4636C103.748 58.4636 104.453 58.5848 105.116 58.8272C105.785 59.0644 106.374 59.4332 106.885 59.9338C107.401 60.4344 107.806 61.0721 108.101 61.8467C108.396 62.6161 108.543 63.533 108.543 64.5974V65.4748H98.6022V63.5461H105.803C105.798 62.9981 105.68 62.5107 105.448 62.0838C105.216 61.6517 104.893 61.3118 104.477 61.0642C104.066 60.8165 103.587 60.6927 103.04 60.6927C102.455 60.6927 101.942 60.8349 101.5 61.1195C101.058 61.3988 100.713 61.7677 100.466 62.2261C100.223 62.6793 100.1 63.1773 100.095 63.72V65.4037C100.095 66.1098 100.223 66.7158 100.481 67.2217C100.739 67.7223 101.1 68.107 101.563 68.3757C102.026 68.6392 102.569 68.771 103.19 68.771C103.606 68.771 103.982 68.713 104.319 68.5971C104.656 68.4759 104.948 68.2993 105.195 68.0675C105.443 67.8356 105.63 67.5484 105.756 67.2059L108.425 67.5063C108.256 68.2124 107.935 68.8289 107.461 69.3559C106.993 69.8776 106.393 70.2833 105.661 70.5732C104.929 70.8577 104.092 71 103.15 71Z" fill="white"/>
<path d="M113.153 63.6489V70.7629H110.294V58.6217H113.026V60.6847H113.168C113.447 60.005 113.892 59.4648 114.503 59.0643C115.119 58.6639 115.879 58.4636 116.785 58.4636C117.622 58.4636 118.351 58.6428 118.972 59.0011C119.598 59.3594 120.083 59.8785 120.425 60.5583C120.772 61.2381 120.943 62.0628 120.938 63.0324V70.7629H118.08V63.475C118.08 62.6635 117.869 62.0285 117.448 61.57C117.032 61.1116 116.456 60.8824 115.719 60.8824C115.219 60.8824 114.774 60.993 114.384 61.2143C114 61.4304 113.697 61.7439 113.476 62.155C113.26 62.566 113.153 63.064 113.153 63.6489Z" fill="white"/>
<path d="M129.233 58.6217V60.8349H122.261V58.6217H129.233ZM123.982 55.7129H126.84V67.111C126.84 67.4957 126.898 67.7908 127.014 67.9963C127.135 68.1966 127.293 68.3336 127.488 68.4074C127.683 68.4811 127.898 68.518 128.135 68.518C128.314 68.518 128.477 68.5048 128.625 68.4785C128.777 68.4521 128.893 68.4284 128.972 68.4074L129.454 70.6443C129.301 70.697 129.083 70.755 128.799 70.8182C128.52 70.8814 128.177 70.9183 127.772 70.9289C127.056 70.9499 126.411 70.8419 125.838 70.6048C125.264 70.3624 124.808 69.9882 124.472 69.4824C124.14 68.9765 123.977 68.3441 123.982 67.5853V55.7129Z" fill="white"/>
<path d="M130.956 70.7629V58.6217H133.728V60.6452H133.854C134.075 59.9444 134.454 59.4042 134.991 59.0248C135.533 58.6401 136.152 58.4478 136.847 58.4478C137.005 58.4478 137.181 58.4557 137.376 58.4715C137.576 58.4821 137.741 58.5005 137.873 58.5268V61.159C137.752 61.1169 137.56 61.08 137.297 61.0484C137.039 61.0115 136.789 60.993 136.547 60.993C136.025 60.993 135.557 61.1063 135.141 61.3329C134.731 61.5542 134.407 61.8625 134.17 62.2577C133.933 62.6529 133.815 63.1088 133.815 63.6252V70.7629H130.956Z" fill="white"/>
<path d="M143.975 71C142.759 71 141.709 70.7471 140.824 70.2412C139.945 69.73 139.269 69.0081 138.795 68.0754C138.321 67.1374 138.084 66.0334 138.084 64.7634C138.084 63.5145 138.321 62.4184 138.795 61.4752C139.274 60.5267 139.943 59.7889 140.801 59.262C141.659 58.7297 142.667 58.4636 143.825 58.4636C144.572 58.4636 145.278 58.5848 145.941 58.8272C146.609 59.0644 147.199 59.4332 147.71 59.9338C148.225 60.4344 148.631 61.0721 148.926 61.8467C149.22 62.6161 149.368 63.533 149.368 64.5974V65.4748H139.427V63.5461H146.628C146.623 62.9981 146.504 62.5107 146.273 62.0838C146.041 61.6517 145.717 61.3118 145.301 61.0642C144.891 60.8165 144.412 60.6927 143.864 60.6927C143.28 60.6927 142.767 60.8349 142.325 61.1195C141.882 61.3988 141.538 61.7677 141.29 62.2261C141.048 62.6793 140.924 63.1773 140.919 63.72V65.4037C140.919 66.1098 141.048 66.7158 141.306 67.2217C141.564 67.7223 141.925 68.107 142.388 68.3757C142.851 68.6392 143.393 68.771 144.014 68.771C144.43 68.771 144.807 68.713 145.143 68.5971C145.48 68.4759 145.772 68.2993 146.02 68.0675C146.267 67.8356 146.454 67.5484 146.58 67.2059L149.249 67.5063C149.081 68.2124 148.76 68.8289 148.286 69.3559C147.818 69.8776 147.217 70.2833 146.486 70.5732C145.754 70.8577 144.917 71 143.975 71Z" fill="white"/>
</svg>
